<?xml version="1.0" encoding="UTF-8"?>
<svg xmlns="http://www.w3.org/2000/svg" version="1.1" xmlns:xlink="http://www.w3.org/1999/xlink" viewBox="0 0 507.681 620.342">
  <defs>
    <style>
      .cls-1 {
        fill: #fff;
      }

      .cls-2 {
        fill: #aaa;
        opacity: .47;
      }

      .cls-3 {
        opacity: .5;
      }
    </style>
  </defs>
  <!-- Generator: Adobe Illustrator 28.7.1, SVG Export Plug-In . SVG Version: 1.2.0 Build 142)  -->
  <g>
    <g id="Layer_1">
      <g>
        <g>
          <path class="cls-2" d="M185.841,314.262c-.581,0-1.19.009-1.802.017.625-.006,1.227-.012,1.802-.017Z"/>
          <path class="cls-2" d="M183.701,314.282c.115-.002.223-.002.338-.003-.593.006-1.205.013-1.838.023.5-.01,1-.01,1.5-.02Z"/>
          <path class="cls-1" d="M196.691,336.482c-2.44-8.44-3.49-16.07-3.89-22.31v-.01s-.83.01-2.3.04c-.29,0-.61,0-.95.01-.24,0-.48.01-.72.01-.88.01-1.88.02-2.99.04-1.12.01-2.34.02-3.64.04-.76.01-1.54.02-2.35.02-.8.01-1.62.02-2.47.03-4.69.04-11.06.08-16.53.1-1.06,0-2.15.01-3.28.01v.002c-9.65.017-21.576.004-35.35-.112,23.47-70.99,46.93-141.99,70.4-212.98.89-2.7,6.99-16.52,14.25-36.25-11.65-.41-20.65.41-26.04.92-14.51,1.39-26.72,4.05-35.98,6.58C97.601,212.752,50.361,352.882,3.111,493.022h61.08l41.23-127.05h105.09c-4.55-6.75-10.11-16.65-13.82-29.49Z"/>
          <g class="cls-3">
            <image width="411" height="512" transform="translate(150.863 279.36) scale(.24)" xlink:href="شعار-أسفار-الرحال-ابيض-01-1.png"/>
          </g>
          <path class="cls-1" d="M507.681,594.192v17.43c-4.66,2.32-11.77,4.36-21.36,6.11-9.59,1.74-20.2,2.61-31.82,2.61-19.77,0-37.93-3.92-54.49-11.77-16.57-7.84-32.84-20.92-48.82-39.23-16-18.31-33.57-43.44-52.75-75.41-29.46-42.65-58.93-85.31-88.39-127.96h.46c-4.55-6.75-10.11-16.65-13.82-29.49-2.44-8.44-3.49-16.07-3.89-22.31,9.88-.11,15.7-.21,20.31-.44,15.31-.73,27.45-1.25,42.61-5.5,4.5-1.25,24.05-7.29,45.34-21.35,14.52-9.59,26.44-22.23,35.74-37.93,9.29-15.69,13.95-34.87,13.95-57.54s-4.66-41.84-13.95-57.54c-9.3-15.69-21.22-28.47-35.74-38.36-19.11-13.01-36.67-19.02-45.34-21.79-19.51-6.23-35.71-7.83-43.97-8.35-1.67-.11-3.3-.19-4.88-.25.82-2.22,1.66-4.52,2.5-6.89,3.3-9.26,5.85-16.94,7.51-22.05,1.02.01,2.05.03,3.1.05,15.62.33,30.6.93,50.56,3.05,19.18,2.05,38.5,5.97,57.98,11.77,19.47,5.82,37.49,14.54,54.05,26.16,16.57,11.63,29.93,26.74,40.11,45.33,10.16,18.61,15.25,41.85,15.25,69.75,0,33.12-7.12,59.71-21.36,79.77-14.25,20.05-32.12,35.3-53.61,45.76-21.51,10.47-43.02,18.31-64.52,23.54l91.54,152.57c22.08,37.2,41.85,62.63,59.29,76.28,17.43,13.67,36.9,21.66,58.41,23.98Z"/>
          <g class="cls-3">
            <image width="375" height="423" transform="translate(169.583) scale(.24)" xlink:href="شعار-أسفار-الرحال-ابيض-01-2.png"/>
          </g>
          <path class="cls-1" d="M216.881,36.182c-1.66,5.11-4.21,12.79-7.51,22.05-.84,2.37-1.68,4.67-2.5,6.89-8.185.327-16.827.932-25.87,1.9-13.007,1.393-25.089,3.35-36.15,5.6,3.86-11.45,7.72-22.9,11.58-34.35.51-.05,1.02-.09,1.53-.13,2.73-.24,5.38-.44,7.96-.63.47-.03.95-.07,1.44-.1,1.49-.1,2.96-.2,4.4-.29.69-.04,1.4-.08,2.11-.12.19-.01.37-.02.56-.03.39-.02.8-.05,1.23-.07.86-.05,1.72-.09,2.56-.13.56-.03,1.11-.06,1.66-.08.54-.02,1.09-.05,1.63-.07.54-.03,1.07-.05,1.6-.07.53-.02,1.06-.04,1.58-.06.27-.01.55-.02.84-.03.3-.01.6-.02.92-.03,1.06-.04,2.24-.08,3.55-.11.35-.01.71-.02,1.07-.03.8-.03,1.65-.05,2.53-.06.42-.01.84-.02,1.27-.03,1.53-.03,3.17-.06,4.9-.07,1.33-.02,2.7-.03,4.11-.03,2.4-.02,4.96-.01,7.63.01,1.11.01,2.12.02,3.02.03.91.02,1.69.03,2.35.04Z"/>
        </g>
        <g>
          <g>
            <g>
              <g>
                <path class="cls-1" d="M17.982,614.298l-7.136-17.088h-1.216l-9.248,21.12h1.567l2.593-5.92h8.703l.769,1.888c.49,1.237,1.082,2.149,1.776,2.736.692.587,1.407.971,2.144,1.151.736.182,1.413.272,2.032.272.234,0,.484-.017.752-.048.267-.032.484-.069.656-.112v-.736c-.79-.085-1.446-.389-1.969-.912-.522-.522-.997-1.306-1.424-2.352ZM5.15,611.035l3.809-8.736,3.647,8.736h-7.456Z"/>
                <path class="cls-1" d="M19.967,618.709c-.636,0-1.34-.094-2.092-.279-.771-.189-1.526-.595-2.246-1.204-.722-.61-1.343-1.564-1.847-2.835l-.704-1.729H4.706l-2.593,5.92H0l9.468-21.62h1.546l.063.153,7.137,17.09c.412,1.009.872,1.772,1.369,2.27.485.486,1.08.761,1.818.84l.224.024v1.156l-.189.047c-.182.046-.406.084-.687.118-.287.033-.542.05-.782.05ZM4.38,612.161h9.034l.832,2.043c.474,1.196,1.048,2.083,1.706,2.64.66.56,1.347.93,2.042,1.1.714.177,1.377.266,1.973.266.221,0,.457-.015.723-.046.164-.021.31-.042.436-.065v-.316c-.748-.122-1.385-.442-1.896-.954-.544-.544-1.041-1.362-1.479-2.433l-7.071-16.934h-.886l-9.028,20.62h1.021l2.593-5.92ZM12.981,611.285H4.769l4.195-9.623,4.018,9.623ZM5.532,610.785h6.699l-3.277-7.85-3.422,7.85Z"/>
              </g>
              <g>
                <path class="cls-1" d="M35.23,607.514l-3.936-2.336c-1.067-.618-1.904-1.216-2.512-1.792-.608-.576-.912-1.312-.912-2.208,0-.661.16-1.227.479-1.696.32-.469.769-.832,1.345-1.088.575-.256,1.216-.384,1.92-.384,1.685,0,3.034.464,4.048,1.392,1.013.929,1.701,2.491,2.063,4.688h.769v-3.616c0-.618-.208-1.162-.624-1.632-.416-.469-.972-.869-1.664-1.2-.693-.33-1.456-.581-2.288-.752-.832-.17-1.675-.256-2.528-.256-2.048,0-3.69.491-4.928,1.472-1.237.981-1.856,2.315-1.856,4,0,1.174.293,2.198.881,3.072.586.875,1.594,1.729,3.023,2.561l3.937,2.336c1.066.661,1.893,1.307,2.479,1.936.587.63.88,1.403.88,2.32,0,.683-.176,1.264-.527,1.744-.353.479-.838.837-1.456,1.071-.619.235-1.323.353-2.112.353-1.792,0-3.211-.469-4.256-1.408-1.046-.938-1.739-2.507-2.08-4.704h-.769v3.616c0,.598.208,1.136.624,1.616.416.479.981.891,1.696,1.231.715.342,1.499.598,2.353.769.853.17,1.717.256,2.592.256,2.347,0,4.176-.533,5.487-1.601,1.312-1.066,1.969-2.517,1.969-4.352,0-1.173-.331-2.16-.992-2.96-.662-.8-1.696-1.616-3.104-2.448Z"/>
                <path class="cls-1" d="M31.871,619.125c-.885,0-1.772-.088-2.641-.261-.871-.175-1.683-.439-2.411-.788-.742-.354-1.34-.789-1.777-1.293-.455-.525-.686-1.124-.686-1.78v-3.866h1.232l.033.212c.33,2.129,1.003,3.661,2,4.556.992.893,2.368,1.345,4.089,1.345.756,0,1.437-.113,2.023-.336.569-.216,1.021-.548,1.344-.986.317-.434.479-.971.479-1.596,0-.859-.266-1.562-.812-2.149-.57-.611-1.388-1.248-2.429-1.894l-3.933-2.334c-1.454-.846-2.499-1.733-3.104-2.637-.612-.91-.923-1.99-.923-3.211,0-1.757.656-3.169,1.951-4.196,1.277-1.012,2.987-1.525,5.083-1.525.863,0,1.73.088,2.578.261.848.174,1.636.434,2.346.771.721.345,1.308.769,1.743,1.26.456.515.688,1.12.688,1.798v3.866h-1.23l-.035-.209c-.351-2.13-1.019-3.659-1.985-4.545-.961-.88-2.267-1.326-3.879-1.326-.666,0-1.278.122-1.818.362-.53.235-.947.572-1.24,1-.289.426-.436.949-.436,1.556,0,.832.272,1.495.834,2.026.592.562,1.421,1.152,2.465,1.757l3.938,2.338c1.424.842,2.49,1.684,3.169,2.504.696.843,1.05,1.892,1.05,3.119,0,1.905-.693,3.435-2.062,4.546-1.351,1.099-3.249,1.656-5.645,1.656ZM24.856,611.636v3.366c0,.54.185,1.015.563,1.452.392.452.936.846,1.614,1.17.692.331,1.464.583,2.294.749.836.167,1.691.251,2.543.251,2.277,0,4.07-.52,5.329-1.545,1.263-1.025,1.877-2.386,1.877-4.157,0-1.108-.314-2.05-.935-2.801-.642-.775-1.664-1.58-3.039-2.393h0l-3.936-2.336c-1.075-.623-1.936-1.237-2.556-1.825-.657-.622-.99-1.427-.99-2.39,0-.709.176-1.326.522-1.837.347-.507.834-.902,1.45-1.176.604-.269,1.285-.405,2.021-.405,1.741,0,3.16.49,4.217,1.457,1.019.934,1.726,2.488,2.105,4.623h.308v-3.366c0-.561-.184-1.04-.562-1.466-.391-.441-.925-.825-1.584-1.141-.673-.32-1.424-.566-2.231-.732-.814-.167-1.647-.251-2.478-.251-1.979,0-3.585.477-4.772,1.418-1.186.939-1.762,2.185-1.762,3.804,0,1.119.282,2.105.838,2.933.562.84,1.552,1.675,2.942,2.484l3.938,2.337c1.083.671,1.934,1.337,2.534,1.979.629.675.947,1.513.947,2.491,0,.733-.193,1.37-.575,1.892-.381.518-.909.907-1.569,1.157-.644.245-1.385.369-2.201.369-1.849,0-3.336-.495-4.423-1.473-1.051-.942-1.766-2.503-2.126-4.64h-.306Z"/>
              </g>
              <g>
                <path class="cls-1" d="M58.463,597.579c-.384-.245-.949-.368-1.696-.368h-13.151v.832h.479c.96,0,1.573.293,1.84.88s.4,1.36.4,2.32v17.088h3.616v-10.08h7.136v-1.376h-7.136v-8.288h4.703c1.28,0,2.267.293,2.961.88.692.587,1.039,1.552,1.039,2.896h.832v-2.593c0-.426-.074-.837-.224-1.231s-.416-.715-.8-.96Z"/>
                <path class="cls-1" d="M50.201,618.581h-4.116v-17.338c0-.919-.127-1.665-.378-2.217-.225-.493-.752-.733-1.612-.733h-.729v-1.332h13.401c.803,0,1.401.133,1.831.407.428.273.73.638.898,1.082.159.421.24.864.24,1.32v2.843h-1.332v-.25c0-1.261-.32-2.171-.951-2.706-.644-.544-1.586-.82-2.799-.82h-4.453v7.788h7.136v1.876h-7.136v10.08ZM46.585,618.081h3.116v-10.08h7.136v-.876h-7.136v-8.788h4.953c1.335,0,2.385.315,3.122.938.704.597,1.081,1.551,1.124,2.838h.336v-2.343c0-.395-.069-.779-.207-1.143-.132-.347-.36-.621-.701-.838-.342-.219-.867-.329-1.562-.329h-12.901v.332h.229c1.062,0,1.758.346,2.067,1.026.28.618.423,1.434.423,2.424v16.838Z"/>
              </g>
              <g>
                <path class="cls-1" d="M78.334,614.298l-7.136-17.088h-1.216l-9.248,21.12h1.567l2.593-5.92h8.703l.769,1.888c.49,1.237,1.082,2.149,1.776,2.736.692.587,1.407.971,2.144,1.151.736.182,1.413.272,2.032.272.234,0,.484-.017.752-.048.267-.032.484-.069.656-.112v-.736c-.79-.085-1.446-.389-1.969-.912-.522-.522-.997-1.306-1.424-2.352ZM65.502,611.035l3.809-8.736,3.647,8.736h-7.456Z"/>
                <path class="cls-1" d="M80.318,618.709c-.636,0-1.34-.094-2.092-.279-.771-.189-1.526-.595-2.246-1.204-.722-.61-1.343-1.564-1.847-2.835l-.704-1.729h-8.372l-2.593,5.92h-2.113l9.468-21.62h1.546l.063.153,7.137,17.09c.412,1.009.872,1.772,1.369,2.27.485.486,1.08.761,1.818.84l.224.024v1.156l-.189.047c-.182.046-.406.084-.687.118-.287.033-.542.05-.782.05ZM64.731,612.161h9.034l.832,2.043c.474,1.196,1.048,2.083,1.706,2.64.66.56,1.347.93,2.042,1.1.714.177,1.377.266,1.973.266.221,0,.457-.015.723-.046.164-.021.31-.042.436-.065v-.316c-.748-.122-1.385-.442-1.896-.954-.544-.544-1.041-1.362-1.479-2.433l-7.071-16.934h-.886l-9.028,20.62h1.021l2.593-5.92ZM73.333,611.285h-8.213l4.195-9.623,4.018,9.623ZM65.884,610.785h6.699l-3.277-7.85-3.422,7.85Z"/>
              </g>
              <g>
                <path class="cls-1" d="M99.038,614.01l-3.359-5.6c.853-.213,1.674-.518,2.464-.912.789-.395,1.439-.955,1.952-1.681.512-.725.768-1.674.768-2.848,0-1.023-.197-1.877-.592-2.56-.396-.683-.912-1.237-1.552-1.664-.641-.427-1.334-.752-2.08-.977-.747-.224-1.488-.373-2.225-.447-.735-.075-1.381-.112-1.936-.112h-8.64v.832h.479c.96,0,1.573.293,1.84.88s.4,1.36.4,2.32v17.088h3.647v-9.696h1.664l3.2,5.376c.704,1.152,1.37,2.064,2,2.736.629.672,1.27,1.157,1.92,1.456.65.298,1.339.447,2.064.447.426,0,.842-.031,1.248-.096.404-.063.692-.139.863-.224v-.736c-.597-.085-1.231-.362-1.903-.832-.672-.469-1.414-1.387-2.225-2.752ZM93.822,607.178c-.533.16-1.045.24-1.536.24h-2.08v-8.736c.405-.085.801-.148,1.185-.191s.692-.064.928-.064c.49,0,1.003.08,1.536.24s1.029.416,1.488.768c.458.353.832.816,1.119,1.393.288.575.433,1.279.433,2.111s-.145,1.536-.433,2.112c-.287.576-.667,1.035-1.136,1.376-.47.342-.971.592-1.504.752Z"/>
                <path class="cls-1" d="M101.055,618.9c-.758,0-1.487-.158-2.169-.47-.678-.312-1.351-.82-1.998-1.513-.637-.679-1.319-1.613-2.03-2.777l-3.13-5.256h-1.271v9.696h-4.147v-17.338c0-.919-.127-1.665-.378-2.217-.225-.493-.752-.733-1.612-.733h-.729v-1.332h8.89c.564,0,1.224.038,1.961.113.746.075,1.511.229,2.271.457.768.23,1.49.57,2.147,1.008.668.445,1.216,1.033,1.63,1.747.415.718.625,1.621.625,2.685,0,1.221-.273,2.228-.813,2.992-.535.757-1.223,1.349-2.045,1.76-.703.352-1.438.635-2.189.845l3.188,5.315c.789,1.329,1.513,2.229,2.152,2.675.637.445,1.241.711,1.796.79l.215.03v1.108l-.139.068c-.197.099-.504.179-.936.247-.413.065-.846.099-1.287.099ZM89.956,608.384h2.057l3.272,5.498c.691,1.132,1.354,2.039,1.968,2.693.604.645,1.223,1.115,1.842,1.399.988.454,2.142.495,3.169.332.318-.05.522-.102.652-.145v-.359c-.571-.12-1.174-.401-1.797-.836-.708-.494-1.459-1.42-2.296-2.829l-3.532-5.889.327-.081c.828-.207,1.64-.508,2.413-.894.747-.374,1.372-.912,1.859-1.602.479-.678.722-1.588.722-2.703,0-.975-.188-1.794-.559-2.435-.374-.646-.87-1.179-1.474-1.581-.616-.41-1.294-.729-2.014-.945-.729-.219-1.463-.365-2.178-.438-.721-.074-1.363-.111-1.91-.111h-8.39v.332h.229c1.062,0,1.758.346,2.067,1.026.28.618.423,1.434.423,2.424v16.838h3.147v-9.696ZM92.286,607.669h-2.33v-9.189l.198-.042c.407-.085.813-.15,1.209-.194.396-.045.709-.066.955-.066.513,0,1.054.084,1.608.251.56.168,1.087.44,1.568.809.488.376.889.873,1.19,1.479.305.607.459,1.355.459,2.223s-.154,1.615-.459,2.224c-.304.609-.711,1.103-1.212,1.467-.489.355-1.021.621-1.579.789-.555.167-1.096.251-1.608.251ZM90.456,607.169h1.83c.464,0,.957-.077,1.464-.229.505-.151.985-.393,1.429-.715.436-.316.792-.749,1.06-1.285.27-.54.406-1.213.406-2.001s-.137-1.461-.406-1.999c-.268-.538-.62-.978-1.048-1.307-.433-.331-.906-.576-1.408-.727-.507-.152-1-.229-1.464-.229-.225,0-.527.021-.9.062-.314.035-.637.085-.962.148v8.281Z"/>
              </g>
              <g>
                <path class="cls-1" d="M133.887,614.298l-7.136-17.088h-1.216l-9.248,21.12h1.567l2.593-5.92h8.703l.769,1.888c.49,1.237,1.082,2.149,1.776,2.736.692.587,1.407.971,2.144,1.151.736.182,1.413.272,2.032.272.234,0,.484-.017.752-.048.267-.032.484-.069.656-.112v-.736c-.79-.085-1.446-.389-1.969-.912-.522-.522-.997-1.306-1.424-2.352ZM121.055,611.035l3.809-8.736,3.647,8.736h-7.456Z"/>
                <path class="cls-1" d="M135.871,618.709c-.636,0-1.34-.094-2.092-.279-.771-.189-1.526-.595-2.246-1.204-.722-.61-1.343-1.564-1.847-2.835l-.704-1.729h-8.372l-2.593,5.92h-2.113l9.468-21.62h1.546l.063.153,7.137,17.09c.412,1.009.872,1.772,1.369,2.27.485.486,1.08.761,1.818.84l.224.024v1.156l-.189.047c-.182.046-.406.084-.687.118-.287.033-.542.05-.782.05ZM120.284,612.161h9.034l.832,2.043c.474,1.196,1.048,2.083,1.706,2.64.66.56,1.347.93,2.042,1.1.714.177,1.377.266,1.973.266.221,0,.457-.015.723-.046.164-.021.31-.042.436-.065v-.316c-.748-.122-1.385-.442-1.896-.954-.544-.544-1.041-1.362-1.479-2.433l-7.071-16.934h-.886l-9.028,20.62h1.021l2.593-5.92ZM128.886,611.285h-8.213l4.195-9.623,4.018,9.623ZM121.437,610.785h6.699l-3.277-7.85-3.422,7.85Z"/>
              </g>
              <g>
                <path class="cls-1" d="M145.727,601.243c0-1.066-.086-1.889-.257-2.464-.171-.576-.464-.981-.88-1.217-.416-.234-.997-.352-1.744-.352h-3.455v.832h.479c.96,0,1.573.293,1.84.88s.4,1.36.4,2.32v17.088h14.784v-1.376h-11.168v-15.712Z"/>
                <path class="cls-1" d="M157.145,618.581h-15.284v-17.338c0-.919-.127-1.665-.378-2.217-.225-.493-.752-.733-1.612-.733h-.729v-1.332h3.705c.787,0,1.415.129,1.867.384.472.268.808.726.996,1.363.178.597.268,1.45.268,2.535v15.462h11.168v1.876ZM142.36,618.081h14.284v-.876h-11.168v-15.962c0-1.037-.083-1.842-.246-2.393-.153-.517-.403-.866-.764-1.07-.376-.212-.921-.319-1.621-.319h-3.205v.332h.229c1.062,0,1.758.346,2.067,1.026.28.618.423,1.434.423,2.424v16.838Z"/>
              </g>
              <g>
                <path class="cls-1" d="M174.622,614.01l-3.359-5.6c.853-.213,1.674-.518,2.464-.912.789-.395,1.439-.955,1.952-1.681.512-.725.768-1.674.768-2.848,0-1.023-.197-1.877-.592-2.56-.396-.683-.912-1.237-1.552-1.664-.641-.427-1.334-.752-2.08-.977-.747-.224-1.488-.373-2.225-.447-.735-.075-1.381-.112-1.936-.112h-8.64v.832h.479c.96,0,1.573.293,1.84.88s.4,1.36.4,2.32v17.088h3.647v-9.696h1.664l3.2,5.376c.704,1.152,1.37,2.064,2,2.736.629.672,1.27,1.157,1.92,1.456.65.298,1.339.447,2.064.447.426,0,.842-.031,1.248-.096.404-.063.692-.139.863-.224v-.736c-.597-.085-1.231-.362-1.903-.832-.672-.469-1.414-1.387-2.225-2.752ZM169.406,607.178c-.533.16-1.045.24-1.536.24h-2.08v-8.736c.405-.085.801-.148,1.185-.191s.692-.064.928-.064c.49,0,1.003.08,1.536.24s1.029.416,1.488.768c.458.353.832.816,1.119,1.393.288.575.433,1.279.433,2.111s-.145,1.536-.433,2.112c-.287.576-.667,1.035-1.136,1.376-.47.342-.971.592-1.504.752Z"/>
                <path class="cls-1" d="M176.639,618.9c-.758,0-1.487-.158-2.169-.47-.678-.312-1.351-.82-1.998-1.513-.637-.679-1.319-1.613-2.03-2.777l-3.13-5.256h-1.271v9.696h-4.147v-17.338c0-.919-.127-1.665-.378-2.217-.225-.493-.752-.733-1.612-.733h-.729v-1.332h8.89c.564,0,1.224.038,1.961.113.746.075,1.511.229,2.271.457.768.23,1.49.57,2.147,1.008.668.445,1.216,1.033,1.63,1.747.415.718.625,1.621.625,2.685,0,1.221-.273,2.228-.813,2.992-.535.757-1.223,1.349-2.045,1.76-.703.352-1.438.635-2.189.845l3.188,5.315c.789,1.329,1.513,2.229,2.152,2.675.637.445,1.241.711,1.796.79l.215.03v1.108l-.139.068c-.197.099-.504.179-.936.247-.413.065-.846.099-1.287.099ZM165.54,608.384h2.057l3.272,5.498c.691,1.132,1.354,2.039,1.968,2.693.604.645,1.223,1.115,1.842,1.399.987.454,2.143.495,3.169.332.318-.05.522-.102.652-.145v-.359c-.571-.12-1.174-.401-1.797-.836-.708-.494-1.459-1.42-2.296-2.829l-3.532-5.889.327-.081c.828-.207,1.64-.508,2.413-.894.747-.374,1.372-.912,1.859-1.602.479-.678.722-1.588.722-2.703,0-.975-.188-1.794-.559-2.435-.374-.646-.87-1.179-1.474-1.581-.616-.41-1.294-.729-2.014-.945-.729-.219-1.463-.365-2.178-.438-.721-.074-1.363-.111-1.91-.111h-8.39v.332h.229c1.062,0,1.758.346,2.067,1.026.28.618.423,1.434.423,2.424v16.838h3.147v-9.696ZM167.87,607.669h-2.33v-9.189l.198-.042c.407-.085.813-.15,1.209-.194.396-.045.709-.066.955-.066.513,0,1.054.084,1.608.251.56.168,1.087.44,1.568.809.488.376.889.873,1.19,1.479.305.607.459,1.355.459,2.223s-.154,1.615-.459,2.224c-.304.609-.711,1.103-1.212,1.467-.489.355-1.021.621-1.579.789-.555.167-1.096.251-1.608.251ZM166.04,607.169h1.83c.464,0,.957-.077,1.464-.229.505-.151.985-.393,1.429-.715.436-.316.792-.749,1.06-1.285.27-.54.406-1.213.406-2.001s-.137-1.461-.406-1.999c-.268-.538-.62-.978-1.048-1.307-.433-.331-.906-.576-1.408-.727-.507-.152-1-.229-1.464-.229-.225,0-.527.021-.9.062-.314.035-.637.085-.962.148v8.281Z"/>
              </g>
              <g>
                <path class="cls-1" d="M198.942,614.298l-7.136-17.088h-1.216l-9.248,21.12h1.567l2.593-5.92h8.703l.769,1.888c.49,1.237,1.082,2.149,1.776,2.736.692.587,1.407.971,2.144,1.151.736.182,1.413.272,2.032.272.234,0,.484-.017.752-.048.267-.032.484-.069.656-.112v-.736c-.79-.085-1.446-.389-1.969-.912-.522-.522-.997-1.306-1.424-2.352ZM186.11,611.035l3.809-8.736,3.647,8.736h-7.456Z"/>
                <path class="cls-1" d="M200.927,618.709c-.636,0-1.34-.094-2.092-.279-.771-.189-1.526-.595-2.246-1.204-.722-.61-1.343-1.564-1.847-2.835l-.704-1.729h-8.372l-2.593,5.92h-2.113l9.468-21.62h1.546l.063.153,7.137,17.09c.412,1.009.872,1.772,1.369,2.27.485.486,1.08.761,1.818.84l.224.024v1.156l-.189.047c-.182.046-.406.084-.687.118-.287.033-.542.05-.782.05ZM185.34,612.161h9.034l.832,2.043c.474,1.196,1.048,2.083,1.706,2.64.66.56,1.347.93,2.042,1.1.714.177,1.377.266,1.973.266.221,0,.457-.015.723-.046.164-.021.31-.042.436-.065v-.316c-.748-.122-1.385-.442-1.896-.954-.544-.544-1.041-1.362-1.479-2.433l-7.071-16.934h-.886l-9.028,20.62h1.021l2.593-5.92ZM193.941,611.285h-8.213l4.195-9.623,4.018,9.623ZM186.492,610.785h6.699l-3.277-7.85-3.422,7.85Z"/>
              </g>
              <g>
                <path class="cls-1" d="M223.854,616.619c-.267-.587-.399-1.36-.399-2.32v-17.088h-3.648v9.504h-9.023v-5.472c0-1.066-.086-1.889-.257-2.464-.171-.576-.464-.981-.88-1.217-.416-.234-.997-.352-1.744-.352h-3.455v.832h.479c.96,0,1.573.293,1.84.88s.4,1.36.4,2.32v17.088h3.616v-10.24h9.023v6.208c0,1.067.085,1.894.256,2.48s.464.991.88,1.216c.416.224.997.336,1.744.336h3.456v-.832h-.448c-.96,0-1.573-.293-1.84-.88Z"/>
                <path class="cls-1" d="M226.393,618.581h-3.706c-.784,0-1.411-.123-1.862-.366-.476-.256-.812-.716-1.002-1.365-.179-.614-.266-1.449-.266-2.551v-5.958h-8.523v10.24h-4.116v-17.338c0-.919-.127-1.665-.378-2.217-.225-.493-.752-.733-1.612-.733h-.729v-1.332h3.705c.787,0,1.415.129,1.867.384.472.268.808.726.996,1.363.178.597.268,1.45.268,2.535v5.222h8.523v-9.504h4.148v17.338c0,.92.127,1.666.377,2.217.225.493.752.733,1.612.733h.698v1.332ZM210.533,607.84h9.523v6.458c0,1.039.083,1.851.246,2.41.152.524.4.873.759,1.066.377.203.924.306,1.625.306h3.206v-.332h-.198c-1.062,0-1.758-.346-2.067-1.026-.28-.616-.422-1.432-.422-2.424v-16.838h-3.148v9.504h-9.523v-5.722c0-1.037-.083-1.842-.246-2.393-.153-.517-.403-.866-.764-1.07-.376-.212-.921-.319-1.621-.319h-3.205v.332h.229c1.062,0,1.758.346,2.067,1.026.28.618.423,1.434.423,2.424v16.838h3.116v-10.24Z"/>
              </g>
              <g>
                <path class="cls-1" d="M249.07,616.619c-.267-.587-.399-1.36-.399-2.32v-17.088h-3.648v9.504h-9.023v-5.472c0-1.066-.086-1.889-.257-2.464-.171-.576-.464-.981-.88-1.217-.416-.234-.997-.352-1.744-.352h-3.455v.832h.479c.96,0,1.573.293,1.84.88s.4,1.36.4,2.32v17.088h3.616v-10.24h9.023v6.208c0,1.067.085,1.894.256,2.48s.464.991.88,1.216c.416.224.997.336,1.744.336h3.456v-.832h-.448c-.96,0-1.573-.293-1.84-.88Z"/>
                <path class="cls-1" d="M251.608,618.581h-3.706c-.784,0-1.411-.123-1.862-.366-.476-.256-.812-.716-1.002-1.365-.179-.614-.266-1.449-.266-2.551v-5.958h-8.523v10.24h-4.116v-17.338c0-.919-.127-1.665-.378-2.217-.225-.493-.752-.733-1.612-.733h-.729v-1.332h3.705c.787,0,1.415.129,1.867.384.472.268.808.726.996,1.363.178.597.268,1.45.268,2.535v5.222h8.523v-9.504h4.148v17.338c0,.92.127,1.666.377,2.217.225.493.752.733,1.612.733h.698v1.332ZM235.749,607.84h9.523v6.458c0,1.039.083,1.851.246,2.41.152.524.4.873.759,1.066.377.203.924.306,1.625.306h3.206v-.332h-.198c-1.062,0-1.758-.346-2.067-1.026-.28-.616-.422-1.432-.422-2.424v-16.838h-3.148v9.504h-9.523v-5.722c0-1.037-.083-1.842-.246-2.393-.153-.517-.403-.866-.764-1.07-.376-.212-.921-.319-1.621-.319h-3.205v.332h.229c1.062,0,1.758.346,2.067,1.026.28.618.423,1.434.423,2.424v16.838h3.116v-10.24Z"/>
              </g>
              <g>
                <path class="cls-1" d="M272.446,614.298l-7.136-17.088h-1.216l-9.248,21.12h1.567l2.593-5.92h8.703l.769,1.888c.49,1.237,1.082,2.149,1.776,2.736.692.587,1.407.971,2.144,1.151.736.182,1.413.272,2.032.272.234,0,.484-.017.752-.048.267-.032.484-.069.656-.112v-.736c-.79-.085-1.446-.389-1.969-.912-.522-.522-.997-1.306-1.424-2.352ZM259.614,611.035l3.809-8.736,3.647,8.736h-7.456Z"/>
                <path class="cls-1" d="M274.431,618.709c-.636,0-1.34-.094-2.092-.279-.771-.189-1.526-.595-2.246-1.204-.722-.61-1.343-1.564-1.847-2.835l-.704-1.729h-8.372l-2.593,5.92h-2.113l9.468-21.62h1.546l.063.153,7.137,17.09c.412,1.009.872,1.772,1.369,2.27.485.486,1.08.761,1.818.84l.224.024v1.156l-.189.047c-.182.046-.406.084-.687.118-.287.033-.542.05-.782.05ZM258.844,612.161h9.034l.832,2.043c.474,1.196,1.048,2.083,1.706,2.64.66.56,1.347.93,2.042,1.1.714.177,1.377.266,1.973.266.221,0,.457-.015.723-.046.164-.021.31-.042.436-.065v-.316c-.748-.122-1.385-.442-1.896-.954-.544-.544-1.041-1.362-1.479-2.433l-7.071-16.934h-.886l-9.028,20.62h1.021l2.593-5.92ZM267.445,611.285h-8.213l4.195-9.623,4.018,9.623ZM259.996,610.785h6.699l-3.277-7.85-3.422,7.85Z"/>
              </g>
              <g>
                <path class="cls-1" d="M284.287,616.955v-15.712c0-1.066-.086-1.889-.257-2.464-.171-.576-.464-.981-.88-1.217-.416-.234-.997-.352-1.744-.352h-3.455v.832h.479c.96,0,1.573.293,1.84.88s.4,1.36.4,2.32v17.088h14.784v-1.376h-11.168Z"/>
                <path class="cls-1" d="M295.705,618.581h-15.284v-17.338c0-.919-.127-1.665-.378-2.217-.225-.493-.752-.733-1.612-.733h-.729v-1.332h3.705c.787,0,1.415.129,1.867.384.472.268.808.726.996,1.363.178.597.268,1.45.268,2.535v15.462h11.168v1.876ZM280.921,618.081h14.284v-.876h-11.168v-15.962c0-1.037-.083-1.842-.246-2.393-.153-.517-.403-.866-.764-1.07-.376-.212-.921-.319-1.621-.319h-3.205v.332h.229c1.062,0,1.758.346,2.067,1.026.28.618.423,1.434.423,2.424v16.838Z"/>
              </g>
            </g>
            <g>
              <path class="cls-1" d="M32.077,540.898c-1.922-1.182-3.817-5.264-3.995-8.568h-.649l-1.608,2.52c-.715,1.26-.956,2.264-.914,3.167v33.742c0,2.837-4.391,5.327-9.55,5.327-7.895,0-11.31-3.057-11.31-7.88,0-1.698.824-5.67,2.642-8.308h-.885c-2.034,3.009-3.686,8.724-3.686,12.758,0,6.786,4.02,11.632,11.846,11.632,9.877,0,14.832-7.652,14.832-16.903l-.029.025v-23.223l3.307-4.289Z"/>
              <path class="cls-1" d="M108.571,561.892l1.498-5.871-.115-.424c-2.927.015-5.071-.516-7.329-1.254-5.476-1.789-8.516-4.632-13.265-5.101-4.188-.413-8.05,3.787-6.411,10.523h.43c.238-3.621,2.69-5.154,5.304-4.515,3.616.884,8.468,3.508,14.055,4.807-8.996,2.918-16.372,3.983-23.649,4.078h0s-6.753,0-6.753,0h-27.337l-.02.011v-.01c-4.788,0-5.524-2.642-5.521-5.84l.01-13.755c.004-4.403,0-7.895,0-12.423h-.462l-3.689,5.452v.404c.555,1.266.795,5.31.827,9.491l.11,14.031c.06,7.6,2.441,10.709,8.724,10.709v-.011l.021.011h34.09v-.017c12.148-.191,23.487-11.557,29.483-10.298Z"/>
              <path class="cls-1" d="M135.388,532.33h-.65l-1.607,2.52c-.834,1.47-1.024,2.592-.87,3.611v24.068c0,1.098-1.356,1.581-5.088,1.606-4.176-.011-5.582-1.439-7.425-5.235-.405-.837-.832-1.777-1.315-2.826h-.59l-2.956,6.021c2.127,2.68,4.993,5.224,4.993,8.278,0,4.872-6.834,9.198-15.415,9.198-.85,0-1.716-.042-2.595-.13v.647c1.394,1.019,6.325,4.562,9.756,4.562,4.263,0,9.042-6.589,9.69-14.148,2.286,1.706,5.282,1.706,5.906,1.706v-.009c6.408-.026,8.896-4.69,8.896-10.178v-16.894l3.264-4.231c-1.922-1.182-3.816-5.264-3.994-8.568Z"/>
              <path class="cls-1" d="M145.25,537.589v23.925c0,3.564-.059,7.129-.857,10.693h.459c1.704-3.261,4.316-7.436,4.316-15.167v-24.47h-.604l-3.314,5.019Z"/>
              <path class="cls-1" d="M174.282,555.055l-2.434,6.449c1.671,1.397,5.381,5.125,5.381,7.325,0,4.736-6.339,10.343-14.205,10.343-1.109,0-2.163-.05-3.162-.141v.791c2.252,2.19,6.3,4.231,8.415,4.231,6.066,0,10.399-6.619,10.399-15.76,0-4.036-.922-8.298-3.65-13.239h-.744Z"/>
              <polygon class="cls-1" points="243.962 540.581 239.298 536.4 235.707 540.421 240.371 544.601 243.962 540.581"/>
              <path class="cls-1" d="M278.583,553.357l-2.788,6.467c1.351,1.278,3.592,3.175,3.592,4.022,0,.423-.781.612-1.898.612-2.855,0-7.904-1.231-7.731-2.931.151-1.49.271-2.012.327-3.975h-.61c-.358,3.908-1.416,6.774-7.409,6.774-1.18,0-3.807-.375-3.592-1.126.151-1.489.427-3.039.484-5.003h-.61c-.357,3.893-2.485,5.921-8.756,5.936h0c-2.662,0-4.633-.132-6.333-.439,1.105-1.905,2.071-4.52,2.071-7.033,0-4.713-1.74-8.63-5.118-8.63-3.524,0-7.934,6.666-7.934,12.275,0,1.161.254,2.381.618,3.317-1.81.34-3.754.451-5.817.509h0s-6.433,0-6.433,0h-27.337l-.02.011v-.01c-4.788,0-5.524-2.642-5.521-5.84l.01-13.755c.004-4.403,0-7.895,0-12.423h-.462l-3.689,5.452v.404c.555,1.266.795,5.31.827,9.491l.11,14.031c.06,7.6,2.441,10.709,8.724,10.709v-.011l.021.011h34.091v-.038c4.743-.063,7.259-1.457,9.912-3.043,3.247,1.842,7.493,3.066,12.21,3.078v.004h.069c2.4-.021,5.586-1.109,7.283-3.154,2.116,3.155,4.712,3.155,5.753,3.155,2.646,0,4.735-1.628,5.729-4.21,1.894,2.746,4.615,3.8,6.474,3.8,3.639,0,6.294-3.695,6.294-8.833,0-3.413-.632-6.278-2.144-9.605l-.397-.003ZM233.551,558.11h0c0-1.657,3.248-3.592,5.92-3.592,2.589,0,4.724,1.918,4.724,4.395,0,.886-1.635,1.992-4.724,3.45-2.55-.557-5.92-2.805-5.92-4.253Z"/>
              <path class="cls-1" d="M287.291,545.846v26.362h.459c1.703-3.26,3.459-7.149,3.459-10.527v-20.854h-.604l-3.313,5.019Z"/>
              <path class="cls-1" d="M293.804,533.089c-3.957.643-7.352-.043-7.526-1.475.412-.493,1.854-1.089,3.218-1.089,1.077,0,2.213.348,3.017.884l.16-.116c.111-1.492.03-4.127-2.496-4.127-4.25,0-6.067,6.281-3.007,8.415-1.349.66-2.112,1.633-2.578,2.339v.257c2.737-.595,6.221-1.185,8.324-1.435l1.027-3.394-.139-.26Z"/>
            </g>
          </g>
          <path class="cls-1" d="M82.197,541.024c-1.709,0-2.838-1.711-2.838-4.179,0-1.218.182-2.536.44-3.306l.488-.121c-.179.702-.261,1.22-.261,1.734,0,1.583.815,2.3,2.482,2.3,2.66,0,2.754-2.544,2.21-5.06l.726-.186c.328,3.221.702,4.277,2.935,4.277,1.445,0,2.179-.491,2.179-1.817,0-.888-.284-2.031-.831-3.462l.709-.179c.574,1.754.788,2.798.788,3.885,0,3.266-.897,5.206-2.845,5.206-1.32,0-2.46-.848-2.979-3.271.033,2.488-1.351,4.177-3.202,4.177v.003Z"/>
        </g>
      </g>
    </g>
  </g>
</svg>