<?xml version="1.0" encoding="UTF-8"?>
<svg xmlns="http://www.w3.org/2000/svg" version="1.1" xmlns:xlink="http://www.w3.org/1999/xlink" viewBox="0 0 35 35">
  <defs>
    <style>
      .cls-1 {
        fill: #fff;
      }
    </style>
  </defs>
  <!-- Generator: Adobe Illustrator 28.7.1, SVG Export Plug-In . SVG Version: 1.2.0 Build 142)  -->
  <g>
    <g id="Capa_1">
      <g>
        <g>
          <path class="cls-1" d="M24.3,23.1h-11.4c-.3,0-.5-.2-.5-.5s.2-.5.5-.5h11.4c.3,0,.5.2.5.5s-.2.5-.5.5Z"/>
          <path class="cls-1" d="M10.2,25.8c-1.8,0-3.2-1.4-3.2-3.2s1.4-3.2,3.2-3.2,3.2,1.4,3.2,3.2-1.4,3.2-3.2,3.2ZM10.2,20.4c-1.2,0-2.2,1-2.2,2.2s1,2.2,2.2,2.2,2.2-1,2.2-2.2-1-2.2-2.2-2.2Z"/>
          <path class="cls-1" d="M27.1,25.8c-1.8,0-3.2-1.4-3.2-3.2s1.4-3.2,3.2-3.2,3.2,1.4,3.2,3.2-1.4,3.2-3.2,3.2ZM27.1,20.4c-1.2,0-2.2,1-2.2,2.2s1,2.2,2.2,2.2,2.2-1,2.2-2.2-1-2.2-2.2-2.2Z"/>
        </g>
        <path class="cls-1" d="M24.3,23.1h-11.4c-.3,0-.5-.2-.5-.5s.2-.5.5-.5h11.4c.3,0,.5.2.5.5s-.2.5-.5.5Z"/>
        <path class="cls-1" d="M32.2,23.1h-2.4c-.3,0-.5-.2-.5-.5s.2-.5.5-.5h2.4c.6,0,1.1-.4,1.2-1.1l.5-3.4c0-.2,0-.5-.2-.7-.1-.2-.4-.3-.6-.3l-6.7-.8c0,0-.2,0-.3-.1l-6-5.1c-.4-.3-.9-.5-1.4-.5h-9.4c-.5,0-.9.2-1.1.6l-2.8,4.4c0,.1-.2.2-.3.2l-3.4,1c-.5.2-.8.7-.7,1.2l.5,3c.1.9.9,1.5,1.7,1.5h4.2c.3,0,.5.2.5.5s-.2.5-.5.5H3.2c-1.4,0-2.5-1-2.7-2.3L0,17.7c-.2-1,.5-2,1.4-2.3l3.2-1,2.7-4.2c.4-.7,1.2-1.1,2-1.1h9.4c.8,0,1.5.3,2.1.8l5.9,5,6.5.8c.5,0,1,.3,1.3.7.3.4.4.9.4,1.4l-.5,3.4c-.2,1.1-1.1,1.9-2.2,1.9Z"/>
      </g>
      <image width="895" height="653" transform="translate(-7652 -7232)" xlink:href="car1_83961-1.png"/>
      <image width="895" height="653" transform="translate(-7652 -7232)" xlink:href="car1_83961-2.png"/>
    </g>
  </g>
</svg>