<?xml version="1.0" encoding="UTF-8"?>
<svg xmlns="http://www.w3.org/2000/svg" version="1.1" viewBox="0 0 512 512">
  <defs>
    <style>
      .cls-1 {
        fill: #fff;
      }
    </style>
  </defs>
  <!-- Generator: Adobe Illustrator 28.7.1, SVG Export Plug-In . SVG Version: 1.2.0 Build 142)  -->
  <g>
    <g id="Layer_1">
      <path class="cls-1" d="M494.3,204.8c-4.8-11.9-20-22.5-40.8-28.3-21.9-6.1-45-5.7-65.3,1.2l-.5.2-67.8,32.2-193.2-76.8c-14-5.6-30.3-2.7-41.5,7.4l-25.5,22.8c-6.6,5.9-7.1,16-1.2,22.6.8.9,1.7,1.7,2.7,2.4l128.4,91-61.7,32.3-39.9-36.5c-7.5-6.8-17.2-10.4-27-10.4s-10.8,1.1-15.9,3.3l-19.4,8.4c-8.1,3.5-11.8,12.9-8.3,21,.2.4.4.8.6,1.2l69.2,130,389.8-192.1c23.6-11.1,19.3-27.2,17.4-31.8ZM475.9,218.8c-1.9,1.4-3.9,2.6-6,3.5h0S94,407.6,94,407.6l-61.9-116.3,19.5-8.4c8.7-3.7,18.8-2.1,25.7,4.3l48.2,44,94.8-49.7-149.7-106.1,25.4-22.8c6.7-6.1,16.5-7.8,24.9-4.4l199.7,79.4,73.3-34.8.5-.2c16.9-5.5,37.1-5.7,55.3-.5,18.2,5.1,25.8,12.9,27.6,15.2l5.4,6.5-6.8,5Z"/>
    </g>
  </g>
</svg>