<?xml version="1.0" encoding="UTF-8"?>
<svg xmlns="http://www.w3.org/2000/svg" version="1.1" viewBox="0 0 48 48">
  <defs>
    <style>
      .cls-1 {
        fill: #fff;
      }
    </style>
  </defs>
  <!-- Generator: Adobe Illustrator 28.7.1, SVG Export Plug-In . SVG Version: 1.2.0 Build 142)  -->
  <g>
    <g id="Layer_1">
      <path id="i-414" class="cls-1" d="M26,22h-4v-4h4v4ZM26,12h-4v4h4v-4ZM32,30h-4v4h4v-4ZM32,12h-4v4h4v-4ZM32,24h-4v4h4v-4ZM32,6h-4v4h4v-4ZM32,18h-4v4h4v-4ZM26,6h-4v4h4v-4ZM20,18h-4v4h4v-4ZM20,30h-4v4h4v-4ZM20,24h-4v4h4v-4ZM36.2,4v42h2.8v2H9v-2h2.8V4h-2.8v-2h5.6V0h18.8v2h5.6v2h-2.8ZM27,41c0-1.7-1.3-3-3-3s-3,1.3-3,3v5h6v-5ZM34.2,4H13.8v42h5.2v-5c0-2.8,2.2-5,5-5s5,2.2,5,5v5h5.2V4ZM26,30h-4v4h4v-4ZM26,24h-4v4h4v-4ZM20,12h-4v4h4v-4ZM20,6h-4v4h4v-4Z"/>
    </g>
  </g>
</svg>