<svg width="25" height="26" viewBox="0 0 25 26" fill="none" xmlns="http://www.w3.org/2000/svg">
<path d="M18.2292 7.271H18.2396M7.29166 2.5835H17.7083C20.5848 2.5835 22.9167 4.91535 22.9167 7.79183V18.2085C22.9167 21.085 20.5848 23.4168 17.7083 23.4168H7.29166C4.41518 23.4168 2.08333 21.085 2.08333 18.2085V7.79183C2.08333 4.91535 4.41518 2.5835 7.29166 2.5835ZM16.6667 12.3439C16.7952 13.2108 16.6471 14.0962 16.2435 14.8741C15.8398 15.6521 15.2012 16.2829 14.4184 16.6769C13.6355 17.0709 12.7484 17.2081 11.8831 17.0688C11.0178 16.9296 10.2185 16.5211 9.59879 15.9014C8.97908 15.2817 8.57055 14.4823 8.43132 13.6171C8.29208 12.7518 8.42923 11.8646 8.82325 11.0818C9.21727 10.299 9.84811 9.66031 10.626 9.25666C11.4039 8.85302 12.2893 8.70494 13.1562 8.8335C14.0405 8.96463 14.8592 9.37669 15.4913 10.0088C16.1235 10.6409 16.5355 11.4596 16.6667 12.3439Z" stroke="white" stroke-width="0.97561" stroke-linecap="round" stroke-linejoin="round"/>
</svg>
