<svg width="25" height="26" viewBox="0 0 25 26" fill="none" xmlns="http://www.w3.org/2000/svg">
<path d="M15.6771 5.70817C16.6945 5.90668 17.6296 6.40427 18.3626 7.13727C19.0956 7.87027 19.5932 8.80532 19.7917 9.82275M15.6771 1.5415C17.7909 1.77633 19.7621 2.72294 21.2669 4.22589C22.7718 5.72884 23.7209 7.69881 23.9583 9.81234M22.9167 18.1248V21.2498C22.9179 21.5399 22.8584 21.8271 22.7422 22.0929C22.626 22.3587 22.4555 22.5973 22.2418 22.7934C22.028 22.9896 21.7756 23.1389 21.5008 23.2318C21.226 23.3248 20.9348 23.3593 20.6458 23.3332C17.4405 22.9849 14.3615 21.8896 11.6563 20.1353C9.13942 18.5359 7.00557 16.4021 5.40626 13.8853C3.64582 11.1678 2.55026 8.07379 2.20835 4.854C2.18231 4.56595 2.21655 4.27563 2.30887 4.00153C2.40118 3.72743 2.54956 3.47556 2.74456 3.26194C2.93955 3.04833 3.17689 2.87766 3.44146 2.7608C3.70603 2.64394 3.99203 2.58344 4.28126 2.58317H7.40626C7.91179 2.5782 8.40188 2.75721 8.78518 3.08685C9.16848 3.41649 9.41884 3.87426 9.48959 4.37484C9.62149 5.37491 9.86611 6.35684 10.2188 7.30192C10.3589 7.67476 10.3892 8.07996 10.3062 8.4695C10.2231 8.85905 10.0301 9.21662 9.75001 9.49984L8.4271 10.8228C9.90997 13.4306 12.0692 15.5899 14.6771 17.0728L16 15.7498C16.2832 15.4698 16.6408 15.2768 17.0303 15.1937C17.4199 15.1106 17.8251 15.1409 18.1979 15.2811C19.143 15.6337 20.1249 15.8784 21.125 16.0103C21.631 16.0816 22.0931 16.3365 22.4235 16.7264C22.7538 17.1163 22.9294 17.614 22.9167 18.1248Z" stroke="white" stroke-width="0.97561" stroke-linecap="round" stroke-linejoin="round"/>
</svg>
