<svg width="80" height="17" viewBox="0 0 80 17" fill="none" xmlns="http://www.w3.org/2000/svg">
<path d="M8.48175 3.17377L8.48245 3.17518L9.65459 5.51946C9.80201 5.81875 10.0419 6.06449 10.2796 6.23993C10.5187 6.41633 10.8236 6.57184 11.15 6.62623L11.1504 6.62629L13.2766 6.97956C13.2768 6.97958 13.2769 6.9796 13.277 6.97962C13.8273 7.07143 13.9096 7.27065 13.9134 7.28261C13.9167 7.29288 13.9676 7.50079 13.5714 7.89429L13.5696 7.8961L11.9163 9.54943C11.6639 9.80183 11.5024 10.1304 11.4147 10.4367C11.327 10.7433 11.2908 11.1056 11.3681 11.4505L11.3681 11.4505L11.3692 11.4554L11.8424 13.5015C11.8425 13.5017 11.8425 13.5018 11.8425 13.5019C11.8425 13.502 11.8425 13.502 11.8426 13.5021C11.921 13.8425 11.921 14.0765 11.8948 14.218C11.879 14.3036 11.8575 14.3398 11.8485 14.3516C11.8345 14.3567 11.7928 14.3664 11.7047 14.3553C11.5607 14.3371 11.3367 14.2657 11.0353 14.0877C11.0353 14.0877 11.0353 14.0877 11.0353 14.0877C11.0351 14.0876 11.0349 14.0875 11.0347 14.0873L9.04229 12.9079C9.04219 12.9078 9.04209 12.9078 9.042 12.9077C8.71811 12.7159 8.33897 12.6431 8.00244 12.6431C7.66512 12.6431 7.28706 12.7162 6.96277 12.9048L6.96276 12.9048L6.95788 12.9077L4.96455 14.0877L4.96384 14.0881C4.66471 14.2656 4.44217 14.3363 4.29927 14.3542C4.20858 14.3655 4.1669 14.3545 4.15395 14.3494C4.14516 14.3387 4.12232 14.3026 4.10571 14.2137C4.07938 14.0729 4.07908 13.8402 4.1573 13.5022L4.15732 13.5021L4.63065 11.4554L4.63067 11.4554L4.63178 11.4505C4.70908 11.1056 4.67291 10.7433 4.58515 10.4367C4.49748 10.1304 4.336 9.80183 4.0836 9.54944L3.63363 9.99941L4.0836 9.54943L2.43027 7.8961C2.03661 7.50244 2.08555 7.2933 2.0894 7.28124C2.09302 7.2699 2.17331 7.0713 2.72286 6.97962C2.72299 6.9796 2.72311 6.97958 2.72324 6.97956L4.84953 6.62629L4.84953 6.6263L4.85217 6.62585C5.17594 6.57087 5.47894 6.41452 5.71581 6.23889C5.95177 6.06393 6.19129 5.81854 6.3386 5.5195L7.51006 3.17658C7.51016 3.17638 7.51025 3.17619 7.51035 3.176C7.77602 2.64774 7.99604 2.63477 7.99911 2.63477C8.00082 2.63477 8.21929 2.64608 8.48175 3.17377ZM11.8443 14.3562C11.8442 14.3561 11.845 14.3552 11.8468 14.3537C11.8453 14.3555 11.8443 14.3563 11.8443 14.3562ZM11.8511 14.3505C11.853 14.3493 11.8541 14.3489 11.8541 14.349C11.8542 14.349 11.8533 14.3496 11.8511 14.3505ZM4.14931 14.3471C4.14936 14.347 4.15037 14.3475 4.15216 14.3487C4.15014 14.3478 4.14925 14.3472 4.14931 14.3471ZM4.15519 14.3509C4.1569 14.3523 4.15765 14.3531 4.15759 14.3532C4.15754 14.3532 4.15668 14.3526 4.15519 14.3509Z" fill="#FABF35" stroke="#FABF35" stroke-width="1.5" stroke-linecap="round" stroke-linejoin="round"/>
<path d="M24.4818 3.17377L24.4825 3.17518L25.6546 5.51946C25.802 5.81875 26.0419 6.06449 26.2796 6.23993C26.5187 6.41633 26.8236 6.57184 27.15 6.62623L27.1504 6.62629L29.2766 6.97956C29.2768 6.97958 29.2769 6.9796 29.277 6.97962C29.8273 7.07143 29.9096 7.27065 29.9134 7.28261C29.9167 7.29288 29.9676 7.50079 29.5714 7.89429L29.5696 7.8961L27.9163 9.54943C27.6639 9.80183 27.5024 10.1304 27.4147 10.4367C27.327 10.7433 27.2908 11.1056 27.3681 11.4505L27.3681 11.4505L27.3692 11.4554L27.8424 13.5015C27.8425 13.5017 27.8425 13.5018 27.8425 13.5019C27.8425 13.502 27.8425 13.502 27.8426 13.5021C27.921 13.8425 27.921 14.0765 27.8948 14.218C27.879 14.3036 27.8575 14.3398 27.8485 14.3516C27.8345 14.3567 27.7928 14.3664 27.7047 14.3553C27.5607 14.3371 27.3367 14.2657 27.0353 14.0877C27.0353 14.0877 27.0353 14.0877 27.0353 14.0877C27.0351 14.0876 27.0349 14.0875 27.0347 14.0873L25.0423 12.9079C25.0422 12.9078 25.0421 12.9078 25.042 12.9077C24.7181 12.7159 24.339 12.6431 24.0024 12.6431C23.6651 12.6431 23.2871 12.7162 22.9628 12.9048L22.9628 12.9048L22.9579 12.9077L20.9646 14.0877L20.9638 14.0881C20.6647 14.2656 20.4422 14.3363 20.2993 14.3542C20.2086 14.3655 20.1669 14.3545 20.1539 14.3494C20.1452 14.3387 20.1223 14.3026 20.1057 14.2137C20.0794 14.0729 20.0791 13.8402 20.1573 13.5022L20.1573 13.5021L20.6307 11.4554L20.6307 11.4554L20.6318 11.4505C20.7091 11.1056 20.6729 10.7433 20.5851 10.4367C20.4975 10.1304 20.336 9.80183 20.0836 9.54944L19.6336 9.99941L20.0836 9.54943L18.4303 7.8961C18.0366 7.50244 18.0855 7.2933 18.0894 7.28124C18.093 7.2699 18.1733 7.0713 18.7229 6.97962C18.723 6.9796 18.7231 6.97958 18.7232 6.97956L20.8495 6.62629L20.8495 6.6263L20.8522 6.62585C21.1759 6.57087 21.4789 6.41452 21.7158 6.23889C21.9518 6.06393 22.1913 5.81854 22.3386 5.5195L23.5101 3.17658C23.5102 3.17638 23.5103 3.17619 23.5104 3.176C23.776 2.64774 23.996 2.63477 23.9991 2.63477C24.0008 2.63477 24.2193 2.64608 24.4818 3.17377ZM27.8443 14.3562C27.8442 14.3561 27.845 14.3552 27.8468 14.3537C27.8453 14.3555 27.8443 14.3563 27.8443 14.3562ZM27.8511 14.3505C27.853 14.3493 27.8541 14.3489 27.8541 14.349C27.8542 14.349 27.8533 14.3496 27.8511 14.3505ZM20.1493 14.3471C20.1494 14.347 20.1504 14.3475 20.1522 14.3487C20.1501 14.3478 20.1492 14.3472 20.1493 14.3471ZM20.1552 14.3509C20.1569 14.3523 20.1576 14.3531 20.1576 14.3532C20.1575 14.3532 20.1567 14.3526 20.1552 14.3509Z" fill="#FABF35" stroke="#FABF35" stroke-width="1.5" stroke-linecap="round" stroke-linejoin="round"/>
<path d="M40.4818 3.17377L40.4825 3.17518L41.6546 5.51946C41.802 5.81875 42.0419 6.06449 42.2796 6.23993C42.5187 6.41633 42.8236 6.57184 43.15 6.62623L43.1504 6.62629L45.2766 6.97956C45.2768 6.97958 45.2769 6.9796 45.277 6.97962C45.8273 7.07143 45.9096 7.27065 45.9134 7.28261C45.9167 7.29288 45.9676 7.50079 45.5714 7.89429L45.5696 7.8961L43.9163 9.54943C43.6639 9.80183 43.5024 10.1304 43.4147 10.4367C43.327 10.7433 43.2908 11.1056 43.3681 11.4505L43.3681 11.4505L43.3692 11.4554L43.8424 13.5015C43.8425 13.5017 43.8425 13.5018 43.8425 13.5019C43.8425 13.502 43.8425 13.502 43.8426 13.5021C43.921 13.8425 43.921 14.0765 43.8948 14.218C43.879 14.3036 43.8575 14.3398 43.8485 14.3516C43.8345 14.3567 43.7928 14.3664 43.7047 14.3553C43.5607 14.3371 43.3367 14.2657 43.0353 14.0877C43.0353 14.0877 43.0353 14.0877 43.0353 14.0877C43.0351 14.0876 43.0349 14.0875 43.0347 14.0873L41.0423 12.9079C41.0422 12.9078 41.0421 12.9078 41.042 12.9077C40.7181 12.7159 40.339 12.6431 40.0024 12.6431C39.6651 12.6431 39.2871 12.7162 38.9628 12.9048L38.9628 12.9048L38.9579 12.9077L36.9646 14.0877L36.9638 14.0881C36.6647 14.2656 36.4422 14.3363 36.2993 14.3542C36.2086 14.3655 36.1669 14.3545 36.1539 14.3494C36.1452 14.3387 36.1223 14.3026 36.1057 14.2137C36.0794 14.0729 36.0791 13.8402 36.1573 13.5022L36.1573 13.5021L36.6307 11.4554L36.6307 11.4554L36.6318 11.4505C36.7091 11.1056 36.6729 10.7433 36.5851 10.4367C36.4975 10.1304 36.336 9.80183 36.0836 9.54944L35.6336 9.99941L36.0836 9.54943L34.4303 7.8961C34.0366 7.50244 34.0855 7.2933 34.0894 7.28124C34.093 7.2699 34.1733 7.0713 34.7229 6.97962C34.723 6.9796 34.7231 6.97958 34.7232 6.97956L36.8495 6.62629L36.8495 6.6263L36.8522 6.62585C37.1759 6.57087 37.4789 6.41452 37.7158 6.23889C37.9518 6.06393 38.1913 5.81854 38.3386 5.5195L39.5101 3.17658C39.5102 3.17638 39.5103 3.17619 39.5104 3.176C39.776 2.64774 39.996 2.63477 39.9991 2.63477C40.0008 2.63477 40.2193 2.64608 40.4818 3.17377ZM43.8443 14.3562C43.8442 14.3561 43.845 14.3552 43.8468 14.3537C43.8453 14.3555 43.8443 14.3563 43.8443 14.3562ZM43.8511 14.3505C43.853 14.3493 43.8541 14.3489 43.8541 14.349C43.8542 14.349 43.8533 14.3496 43.8511 14.3505ZM36.1493 14.3471C36.1494 14.347 36.1504 14.3475 36.1522 14.3487C36.1501 14.3478 36.1492 14.3472 36.1493 14.3471ZM36.1552 14.3509C36.1569 14.3523 36.1576 14.3531 36.1576 14.3532C36.1575 14.3532 36.1567 14.3526 36.1552 14.3509Z" fill="#FABF35" stroke="#FABF35" stroke-width="1.5" stroke-linecap="round" stroke-linejoin="round"/>
<path d="M56.4818 3.17377L56.4825 3.17518L57.6546 5.51946C57.802 5.81875 58.0419 6.06449 58.2796 6.23993C58.5187 6.41633 58.8236 6.57184 59.15 6.62623L59.1504 6.62629L61.2766 6.97956C61.2768 6.97958 61.2769 6.9796 61.277 6.97962C61.8273 7.07143 61.9096 7.27065 61.9134 7.28261C61.9167 7.29288 61.9676 7.50079 61.5714 7.89429L61.5696 7.8961L59.9163 9.54943C59.6639 9.80183 59.5024 10.1304 59.4147 10.4367C59.327 10.7433 59.2908 11.1056 59.3681 11.4505L59.3681 11.4505L59.3692 11.4554L59.8424 13.5015C59.8425 13.5017 59.8425 13.5018 59.8425 13.5019C59.8425 13.502 59.8425 13.502 59.8426 13.5021C59.921 13.8425 59.921 14.0765 59.8948 14.218C59.879 14.3036 59.8575 14.3398 59.8485 14.3516C59.8345 14.3567 59.7928 14.3664 59.7047 14.3553C59.5607 14.3371 59.3367 14.2657 59.0353 14.0877C59.0353 14.0877 59.0353 14.0877 59.0353 14.0877C59.0351 14.0876 59.0349 14.0875 59.0347 14.0873L57.0423 12.9079C57.0422 12.9078 57.0421 12.9078 57.042 12.9077C56.7181 12.7159 56.339 12.6431 56.0024 12.6431C55.6651 12.6431 55.2871 12.7162 54.9628 12.9048L54.9628 12.9048L54.9579 12.9077L52.9646 14.0877L52.9638 14.0881C52.6647 14.2656 52.4422 14.3363 52.2993 14.3542C52.2086 14.3655 52.1669 14.3545 52.1539 14.3494C52.1452 14.3387 52.1223 14.3026 52.1057 14.2137C52.0794 14.0729 52.0791 13.8402 52.1573 13.5022L52.1573 13.5021L52.6307 11.4554L52.6307 11.4554L52.6318 11.4505C52.7091 11.1056 52.6729 10.7433 52.5851 10.4367C52.4975 10.1304 52.336 9.80183 52.0836 9.54944L51.6336 9.99941L52.0836 9.54943L50.4303 7.8961C50.0366 7.50244 50.0855 7.2933 50.0894 7.28124C50.093 7.2699 50.1733 7.0713 50.7229 6.97962C50.723 6.9796 50.7231 6.97958 50.7232 6.97956L52.8495 6.62629L52.8495 6.6263L52.8522 6.62585C53.1759 6.57087 53.4789 6.41452 53.7158 6.23889C53.9518 6.06393 54.1913 5.81854 54.3386 5.5195L55.5101 3.17658C55.5102 3.17638 55.5103 3.17619 55.5104 3.176C55.776 2.64774 55.996 2.63477 55.9991 2.63477C56.0008 2.63477 56.2193 2.64608 56.4818 3.17377ZM59.8443 14.3562C59.8442 14.3561 59.845 14.3552 59.8468 14.3537C59.8453 14.3555 59.8443 14.3563 59.8443 14.3562ZM59.8511 14.3505C59.853 14.3493 59.8541 14.3489 59.8541 14.349C59.8542 14.349 59.8533 14.3496 59.8511 14.3505ZM52.1493 14.3471C52.1494 14.347 52.1504 14.3475 52.1522 14.3487C52.1501 14.3478 52.1492 14.3472 52.1493 14.3471ZM52.1552 14.3509C52.1569 14.3523 52.1576 14.3531 52.1576 14.3532C52.1575 14.3532 52.1567 14.3526 52.1552 14.3509Z" fill="#FABF35" stroke="#FABF35" stroke-width="1.5" stroke-linecap="round" stroke-linejoin="round"/>
<path d="M72.4818 3.17377L72.4825 3.17518L73.6546 5.51946C73.802 5.81875 74.0419 6.06449 74.2796 6.23993C74.5187 6.41633 74.8236 6.57184 75.15 6.62623L75.1504 6.62629L77.2766 6.97956C77.2768 6.97958 77.2769 6.9796 77.277 6.97962C77.8273 7.07143 77.9096 7.27065 77.9134 7.28261C77.9167 7.29288 77.9676 7.50079 77.5714 7.89429L77.5696 7.8961L75.9163 9.54943C75.6639 9.80183 75.5024 10.1304 75.4147 10.4367C75.327 10.7433 75.2908 11.1056 75.3681 11.4505L75.3681 11.4505L75.3692 11.4554L75.8424 13.5015C75.8425 13.5017 75.8425 13.5018 75.8425 13.5019C75.8425 13.502 75.8425 13.502 75.8426 13.5021C75.921 13.8425 75.921 14.0765 75.8948 14.218C75.879 14.3036 75.8575 14.3398 75.8485 14.3516C75.8345 14.3567 75.7928 14.3664 75.7047 14.3553C75.5607 14.3371 75.3367 14.2657 75.0353 14.0877C75.0353 14.0877 75.0353 14.0877 75.0353 14.0877C75.0351 14.0876 75.0349 14.0875 75.0347 14.0873L73.0423 12.9079C73.0422 12.9078 73.0421 12.9078 73.042 12.9077C72.7181 12.7159 72.339 12.6431 72.0024 12.6431C71.6651 12.6431 71.2871 12.7162 70.9628 12.9048L70.9628 12.9048L70.9579 12.9077L68.9646 14.0877L68.9638 14.0881C68.6647 14.2656 68.4422 14.3363 68.2993 14.3542C68.2086 14.3655 68.1669 14.3545 68.1539 14.3494C68.1452 14.3387 68.1223 14.3026 68.1057 14.2137C68.0794 14.0729 68.0791 13.8402 68.1573 13.5022L68.1573 13.5021L68.6307 11.4554L68.6307 11.4554L68.6318 11.4505C68.7091 11.1056 68.6729 10.7433 68.5851 10.4367C68.4975 10.1304 68.336 9.80183 68.0836 9.54944L67.6336 9.99941L68.0836 9.54943L66.4303 7.8961C66.0366 7.50244 66.0855 7.2933 66.0894 7.28124C66.093 7.2699 66.1733 7.0713 66.7229 6.97962C66.723 6.9796 66.7231 6.97958 66.7232 6.97956L68.8495 6.62629L68.8495 6.6263L68.8522 6.62585C69.1759 6.57087 69.4789 6.41452 69.7158 6.23889C69.9518 6.06393 70.1913 5.81854 70.3386 5.5195L71.5101 3.17658C71.5102 3.17638 71.5103 3.17619 71.5104 3.176C71.776 2.64774 71.996 2.63477 71.9991 2.63477C72.0008 2.63477 72.2193 2.64608 72.4818 3.17377ZM75.8443 14.3562C75.8442 14.3561 75.845 14.3552 75.8468 14.3537C75.8453 14.3555 75.8443 14.3563 75.8443 14.3562ZM75.8511 14.3505C75.853 14.3493 75.8541 14.3489 75.8541 14.349C75.8542 14.349 75.8533 14.3496 75.8511 14.3505ZM68.1493 14.3471C68.1494 14.347 68.1504 14.3475 68.1522 14.3487C68.1501 14.3478 68.1492 14.3472 68.1493 14.3471ZM68.1552 14.3509C68.1569 14.3523 68.1576 14.3531 68.1576 14.3532C68.1575 14.3532 68.1567 14.3526 68.1552 14.3509Z" fill="#FABF35" stroke="#FABF35" stroke-width="1.5" stroke-linecap="round" stroke-linejoin="round"/>
</svg>
