<svg transform="scale(1)" version="1.1" id="Layer_1" xmlns="http://www.w3.org/2000/svg" xmlns:xlink="http://www.w3.org/1999/xlink" x="0px" y="0px" viewBox="0 0 500 500" xml:space="preserve" class="show_show__wrapper__graphic__5Waiy "><title>React</title><style type="text/css">
	.st0{fill:#d9d9d9;}
	.st1{fill:#f9d2b1;}
	.st2{fill:#7DABC7;}
	.st3{fill:#083C5D;}
	.st4{fill:#ffbdbd;}
</style><g id="character"><path class="st0" d="M336.4,257.5c-2.6,0.6-5.2,1-7.8,1.3c-1.3,0.1-2.7,0.2-4,0.1c-0.7,0-1.4-0.2-2-0.4c-0.4-0.2-0.7-0.5-0.9-0.8
		c-0.2-0.4-0.2-0.9,0-1.3c0.4-0.7,1-1.3,1.8-1.4c0.7-0.2,1.4-0.3,2.1-0.4c1.3,0,2.7,0,4,0.2c2.6,0.3,5.2,0.9,7.8,1.6l-0.7,1.3
		c-2.2-1.8-4.4-3.6-6.5-5.6c-1.1-1-2.1-2.1-3-3.2c-0.5-0.6-0.9-1.2-1.3-1.9c-0.2-0.4-0.4-0.9-0.5-1.3c0-0.2,0-0.3,0-0.5
		c0-0.2,0.1-0.4,0.2-0.5c0.2-0.3,0.4-0.6,0.8-0.8c0.9-0.4,2-0.3,2.9,0.2c0.7,0.4,1.3,0.9,1.9,1.5c1,1.1,1.9,2.2,2.7,3.5
		c1.6,2.4,3,5,4.2,7.6l-1.9,0.6c-0.7-3-1.3-5.9-1.7-8.9c-0.2-1.5-0.4-3-0.5-4.6c0-0.8,0-1.6,0.1-2.4c0.1-0.5,0.2-0.9,0.4-1.4
		c0.1-0.3,0.4-0.6,0.6-0.8c0.2-0.1,0.4-0.2,0.6-0.3c0.2,0,0.4,0,0.6,0c0.6,0.1,1.2,0.4,1.5,0.9c0.3,0.4,0.5,0.8,0.7,1.3
		c0.3,0.8,0.4,1.6,0.5,2.4c0.1,1.5,0.2,3.1,0,4.6c-0.2,3-0.6,6-1.1,9l-1.4-0.5c1.3-2.4,2.7-4.8,4.3-7.1c0.8-1.2,1.6-2.3,2.6-3.3
		c0.5-0.6,1.1-1,1.8-1.4c0.2-0.1,0.4-0.2,0.6-0.2h0.4c0.1,0,0.3,0.1,0.4,0.1c0.4,0.3,0.7,0.7,0.8,1.1c0.2,0.7,0.2,1.5,0,2.3
		c-0.2,0.7-0.6,1.4-1,1.9c-0.8,1.1-1.8,2.1-2.9,3C341.2,254.9,338.9,256.4,336.4,257.5z M336.4,257.5c2.4-1.4,4.6-2.9,6.7-4.7
		c1-0.9,1.9-1.9,2.6-3c0.8-1,1-2.3,0.7-3.5c-0.1-0.2-0.2-0.4-0.4-0.5c-0.1-0.1-0.3,0-0.5,0.1c-0.5,0.3-1,0.7-1.4,1.2
		c-0.9,1-1.6,2.1-2.3,3.3c-1.4,2.3-2.8,4.7-4,7.1l-2.2,4.4l0.8-4.8c0.5-2.9,0.8-5.9,0.9-8.9c0.1-1.5,0-2.9-0.1-4.4
		c-0.1-0.7-0.2-1.4-0.4-2c-0.2-0.6-0.6-1-0.7-0.9s0,0,0.1,0s0.1,0,0.1,0s0,0,0,0s0,0,0,0.1c-0.1,0.3-0.2,0.5-0.2,0.8
		c-0.1,0.7-0.1,1.4,0,2.1c0.1,1.5,0.2,2.9,0.5,4.4c0.5,2.9,1.1,5.9,1.7,8.8l2.1,9.1l-3.9-8.5c-1.2-2.5-2.5-5-4-7.3
		c-0.7-1.2-1.6-2.2-2.5-3.2c-0.4-0.5-0.9-0.8-1.4-1.2c-0.2-0.1-0.4-0.2-0.7-0.3c-0.2,0-0.3,0-0.5,0c0,0,0,0,0-0.1s0,0,0,0s0,0,0,0.1
		c0,0.2,0.1,0.5,0.2,0.7c0.3,0.6,0.7,1.1,1.1,1.6c0.9,1.1,1.8,2.1,2.8,3.1c2,2,4.1,3.9,6.2,5.7l2.8,2.3l-3.4-1
		c-2.5-0.8-5-1.4-7.5-1.8c-1.3-0.2-2.5-0.3-3.8-0.3c-0.6,0-1.2,0.1-1.8,0.2c-0.5,0.1-1,0.4-1.2,0.8c-0.2,0.5-0.1,0.8,0.4,1
		c0.6,0.2,1.2,0.4,1.8,0.5c1.3,0.1,2.6,0.2,3.9,0.1C331.2,258.2,333.8,257.9,336.4,257.5z"></path><path class="st0" d="M313,434.5c0,0,10.3-0.2,13.2-3s21.1-37.9,20.8-39s-9.8-3.8-9.8-3.8l-13.2,18.5c0,0-5.2,21.6-6.2,22.4
		S308.8,433.5,313,434.5z"></path><path class="st1" d="M304.8,390.8c0,0,20,12.5,19.4,16.4s-6.5,20.8-3.8,20.2s20.9-36.4,19.4-37.2s-20.1-12.5-20.1-12.5L304.8,390.8
		z"></path><path class="st0" d="M73.6,409.3c0,0,5.1,6,11.2,8.7c3.7,1.6,37,17.3,38.3,17.2s2.8-7.9,2.8-7.9l-17.8-13.9c0,0-23.8-5.4-25-5.7
		C75.7,406.3,68.2,405.4,73.6,409.3z"></path><path class="st1" d="M124.9,390.2c0,0-12.4,24-16.8,23.2s-23.9-6.9-23.3-4.4s39.1,20.9,40.1,19.6s20.7-28.4,20.7-28.4L124.9,390.2z
		"></path><path class="st0" d="M319.9,401.7c0,0-80.8-49.7-86.9-53s-41.6-116.9-41.6-116.9l50.5,2c0,0,11.1,74.6,16.1,83.5s75.5,69,75.5,69
		L319.9,401.7z"></path><path class="st2" d="M131.5,419.7c0,0-14.3-13.2-15.8-13.7c-7.4-2.3,76.2-152.1,78.6-185.4l45.4,3.5c0,0,9.1,28.7,8.3,34.6
		C247.1,264.6,131.5,419.7,131.5,419.7z"></path><path class="st0" d="M194.2,157.2c0,0-27.2,37.7-59.4,57l9.8,12.9c0,0,69.7-51.4,69.8-55.9S194.2,157.2,194.2,157.2z"></path><path class="st2" d="M133.5,238.5c0,0-29.7-14.7-29.7-16.3s6.9-12.6,6.9-12.6l28.3,17L133.5,238.5z"></path><path class="st3" d="M128.9,235l-1-0.5l0.9-2l1,0.5L128.9,235z M130.7,231.1l-1-0.5l0.9-2l1,0.5L130.7,231.1z M132.6,227.2l-1-0.5
		l0.6-1.3l1,0.5L132.6,227.2z"></path><path class="st1" d="M134.8,214.2c0,0-22.5,1.5-22.9,3s6.9,1.7,6.9,1.7s7.9,5.8,10.9,5.8c3.1,0,9.2,1.9,9.2,1.9l0,0l5.7,0.4
		L134.8,214.2z"></path><path class="st1" d="M110.6,226.7c0,0,5.1-1.3,6.7-0.5s-0.7,1.8-0.7,1.8s6.5-0.4,5.5,0.6c-0.4,0.5-0.9,0.9-1.4,1.2
		c0,0,5.8-0.9,4,1.2c-1.8,2.2-4.7,3.2-7.4,2.7c-2.7-0.6-9-8.4-9-8.4L110.6,226.7z"></path><path class="st3" d="M325.1,305.6c0,0,56.4,125,59.9,125s43.2-13.2,43.2-20.1S374.1,289,371.2,289S325.1,305.6,325.1,305.6z"></path><path class="st0" d="M298.3,247.8c0,0,25,58.6,26.8,57.9l5-1.9c0,0-27.6-58.7-29.2-58.7S298.3,247.8,298.3,247.8z"></path><path class="st0" d="M347,315.2c4.2,8.1,8.3,16.3,12.3,24.6c4,8.2,7.9,16.5,11.8,24.8s7.7,16.6,11.4,25s7.4,16.8,10.9,25.2
		c-4.2-8.1-8.3-16.3-12.3-24.5c-4-8.2-7.9-16.5-11.8-24.8s-7.7-16.6-11.4-25S350.6,323.7,347,315.2z"></path><path class="st0" d="M362.9,305.6c4.3,8.2,8.6,16.5,12.6,24.8c4.1,8.3,8.1,16.7,12.1,25s7.9,16.8,11.8,25.2s7.6,16.9,11.2,25.5
		c-4.3-8.2-8.6-16.5-12.7-24.8c-4.1-8.3-8.1-16.7-12.1-25s-7.9-16.8-11.8-25.2S366.5,314.2,362.9,305.6z"></path><path class="st2" d="M313.4,268.8c0,0,45.1-22.8,49.4-19.1s13.8,36.4,13.8,36.4l-46.5,16.6L313.4,268.8z"></path><path class="st0" d="M349.3,252.5c2,2.9,3.8,5.9,5.3,9c1.6,3.1,3,6.3,4.2,9.6c1.2,3.3,2.2,6.6,3,10c0.8,3.4,1.1,6.9,1.1,10.4
		c-0.7-3.4-1.6-6.7-2.6-10c-0.3-0.8-0.5-1.6-0.8-2.5c-0.2-0.8-0.6-1.6-0.8-2.4c-0.5-1.6-1.1-3.2-1.7-4.8c-1.2-3.2-2.5-6.4-3.8-9.6
		L349.3,252.5z"></path><path class="st0" d="M325.1,263.1c1.6,2.9,3,5.8,4.4,8.8s2.7,5.9,4.1,8.9l3.9,8.9c1.3,3,2.6,5.9,4.1,8.9c-2.1-2.5-3.9-5.3-5.5-8.2
		c-1.6-2.9-3-5.8-4.4-8.8s-2.6-6-3.7-9.1C326.9,269.4,326,266.3,325.1,263.1z"></path><path class="st0" d="M393.5,426.6c0,0-5.5,1-3.3,8.2s10.5,3.5,11-1.2S397.9,425.3,393.5,426.6z"></path><path class="st2" d="M201,68.6c0,0,1.4-4.8,10.5-6.8s22.3,0.5,27.1,14.9c8,24,0.2,42.5-1.2,44.4s-22.3,6.1-24.9,4.2
		s-4.1-10.1,0.2-22.5C212.7,102.7,200.9,71.6,201,68.6z"></path><path class="st1" d="M208.7,106.7c-5.9,1.4-17.1-13.1-17.1-13.1s-8.2-1.9-8.5-3.7s5.7-6,9.4-10.7s7.4-11.4,9.8-11.1
		c1,0.1,5.5,1.7,11.7,10.3c2.7,3.9,5,8,7.1,12.2C221.1,90.7,216.2,104.9,208.7,106.7z"></path><path class="st0" d="M206,84.1l-1.8,0.2c-0.6,0.1-1.2,0.2-1.7,0.3c-0.5,0.1-1.1,0.3-1.6,0.6c-0.5,0.3-1,0.7-1.4,1.1
		c0.1-0.7,0.4-1.3,0.9-1.8c0.5-0.4,1.1-0.8,1.8-0.9c0.7-0.2,1.3-0.2,2-0.1C204.8,83.6,205.4,83.8,206,84.1z"></path><path class="st0" d="M205.2,88.5c-0.2-0.1-0.4-0.1-0.5-0.2c-0.1,0-0.2-0.1-0.3-0.2c-0.1-0.1-0.1-0.2-0.2-0.3
		c-0.1-0.2-0.1-0.4-0.1-0.5c0.3-0.2,0.7-0.1,1,0.2c0.1,0.1,0.2,0.3,0.2,0.5C205.5,88.1,205.4,88.4,205.2,88.5z"></path><path class="st0" d="M202.9,89.1c-0.3-0.1-0.6-0.3-0.7-0.6c-0.1-0.3-0.2-0.6-0.2-0.9c0.2-0.1,0.4-0.1,0.6,0
		c0.2,0.1,0.3,0.2,0.4,0.3C203.2,88.3,203.2,88.8,202.9,89.1z"></path><path class="st4" d="M203.5,97c-0.8-0.8-2-0.8-2.9-0.2c-1.4,1.2,1.8,4.8,4.3,3.7S203.5,97,203.5,97z"></path><path class="st0" d="M203.5,94.6c0.7,1.3,0.6,2.9-0.2,4.1c-0.4,0.6-1,1-1.7,1.3c-0.3,0.1-0.7,0.2-1,0.3c-0.3,0-0.7,0.1-1,0.1
		c0.3-0.2,0.6-0.4,0.9-0.5s0.5-0.3,0.8-0.5c0.5-0.3,0.9-0.8,1.3-1.2c0.4-0.5,0.6-1,0.8-1.6C203.4,95.9,203.5,95.2,203.5,94.6z"></path><path class="st0" d="M204.9,78.1c-0.5,0-1,0-1.4,0.1c-0.4,0-0.9,0.1-1.3,0.3c-0.4,0.1-0.8,0.3-1.2,0.5c-0.4,0.2-0.8,0.4-1.3,0.7
		c0.2-0.5,0.4-1,0.8-1.3c0.4-0.4,0.9-0.7,1.4-0.8C202.9,77.1,204,77.4,204.9,78.1z"></path><path class="st0" d="M221.1,68.6c0.6,1.1,1.1,2.4,1.5,3.6c0.4,1.2,0.6,2.5,0.8,3.8c0.4,2.6,0.4,5.2,0.1,7.8c-0.3,2.6-1,5.1-2,7.5
		c-0.5,1.2-1.1,2.4-1.7,3.5c-0.6,1.1-1.4,2.2-2.1,3.2c1.2-2.3,2.2-4.6,3.1-7l0.6-1.8l0.5-1.8c0.2-0.6,0.3-1.2,0.4-1.9
		c0.1-0.6,0.2-1.2,0.3-1.9c0.3-2.5,0.4-5.1,0.1-7.6C222.4,73.6,221.9,71,221.1,68.6z"></path><path class="st2" d="M217.9,123.4c0,0,13-6.6,18.1,2.6s6.5,20.2,4.6,27.5s5.6,17.7,5.6,17.7s-3.2-3.6,2.7-10.9s1.1-31.4-3.5-39.9
		S220.4,113.5,217.9,123.4z"></path><path class="st0" d="M239.6,115.9c-1.1-0.2-2.2-0.4-3.3-0.5c-0.6-0.1-1.1-0.1-1.6-0.2s-1.1,0-1.7,0c-2.2,0-4.4,0.2-6.6,0.6
		c-2.2,0.4-4.3,1.1-6.3,2c-2,0.9-3.9,2-5.8,3.3c0.4-0.4,0.8-0.8,1.2-1.1c0.4-0.4,0.8-0.8,1.3-1.1c0.9-0.7,1.9-1.3,2.9-1.8
		c1-0.5,2-1,3.1-1.4c0.5-0.2,1.1-0.3,1.6-0.5l0.8-0.2l0.8-0.2c2.2-0.5,4.5-0.6,6.8-0.4C235.3,114.6,237.5,115.1,239.6,115.9z"></path><path class="st3" d="M203.6,178.5c0,0-10.2-16.8-12.1-19.9s17.3-30.8,26.4-35.2s19.3-3.1,22.2,13.1c3,16.1-5.4,67.9-5.4,67.9
		l16.9,30.6c0,0-56-2.9-60.3-3.2S203.6,178.5,203.6,178.5z"></path><path class="st3" d="M236,126.1c0,0,62.3,98.5,62.3,100.1s-10.4,5.7-10.4,5.7s-55.8-59.9-58-67.1S236,126.1,236,126.1z"></path><path class="st1" d="M306.8,255.5l0.4-5.3c0,0,4.3,8.7,5.1,7.3S311,246,311,246c0.8-1.1,1.3-2.5,1.4-3.9c0-2.2-14-16-14-16
		l-10.4,5.7c0,0,5.3,16.6,7.3,19.6s6,3,6,3l-2.6-6c0,0,2-2.1,3.1-2.1S306.8,255.5,306.8,255.5z"></path><path class="st0" d="M305.4,242.5c0.6,0.8,1.1,1.8,1.5,2.7c0.4,0.9,0.7,1.9,0.9,2.9c0.1,0.5,0.2,1,0.2,1.5c0,0.3,0,0.5,0,0.9
		s-0.1,0.6-0.1,0.8c-0.1,1-0.4,2-0.8,2.9c-0.4-1-0.6-2-0.8-3c0-0.2-0.1-0.6-0.1-0.6l-0.2-0.6l-0.3-1.4c-0.2-1-0.4-2-0.5-2.9
		C305.2,244.6,305.2,243.5,305.4,242.5z"></path><path class="st0" d="M308.9,241.9c0.9,0.7,1.6,1.6,2.2,2.6c0.6,1,1,2,1.4,3.1c0.7,2.2,0.7,4.6-0.1,6.7c-0.4-1.1-0.6-2.1-0.9-3.1
		l-0.9-3C310,246.1,309.4,244.1,308.9,241.9z"></path><path class="st0" d="M287.9,231.8c-5.3-5.6-10.6-11.2-15.8-16.9c-5.2-5.7-10.3-11.5-15.4-17.3s-10.1-11.6-15.1-17.6
		s-9.8-11.9-14.7-17.9c5.3,5.5,10.6,11.2,15.8,16.9c5.2,5.7,10.3,11.5,15.4,17.3c5.1,5.8,10.1,11.6,15,17.6S283.1,225.7,287.9,231.8
		z"></path></g></svg>