<svg width="25" height="26" viewBox="0 0 25 26" fill="none" xmlns="http://www.w3.org/2000/svg">
<path d="M23.9583 3.62522C22.9608 4.32884 21.8564 4.867 20.6875 5.21897C20.0601 4.49763 19.2264 3.98636 18.299 3.75431C17.3716 3.52226 16.3953 3.58063 15.5022 3.92153C14.609 4.26242 13.8421 4.86939 13.3052 5.66034C12.7682 6.4513 12.4872 7.38807 12.5 8.34397V9.38564C10.6694 9.4331 8.85548 9.02711 7.21979 8.20381C5.5841 7.38051 4.1774 6.16547 3.12499 4.66689C3.12499 4.66689 -1.04168 14.0419 8.33332 18.2086C6.18804 19.6648 3.63244 20.3949 1.04166 20.2919C10.4167 25.5002 21.875 20.2919 21.875 8.31272C21.874 8.02257 21.8461 7.73313 21.7917 7.44814C22.8548 6.39969 23.605 5.07596 23.9583 3.62522Z" stroke="white" stroke-width="0.97561" stroke-linecap="round" stroke-linejoin="round"/>
</svg>
