<svg width="52" height="52" viewBox="0 0 52 52" fill="none" xmlns="http://www.w3.org/2000/svg">
<g clip-path="url(#clip0_50_4)">
<rect width="52" height="52" rx="26" fill="#FFDBD1" fill-opacity="0.4"/>
<path d="M36.6076 47.4005C30.5495 44.9628 28.5531 41.9355 29.0703 37.5737H22.4157C22.9329 41.9355 20.9365 44.9628 14.8783 47.4005C8.82021 49.8383 8.00647 52.5001 8.00647 52.5001H43.5036C43.5036 52.5001 42.6727 49.8383 36.6076 47.4005Z" fill="#FF8482"/>
<path d="M25.702 44.6764C27.4007 44.6776 29.0733 44.2582 30.5706 43.4558C29.2293 41.7939 28.8052 39.8699 29.0776 37.5942H22.4161C22.6885 39.901 22.2575 41.8353 20.8955 43.5076C22.3792 44.2811 24.0288 44.6822 25.702 44.6764Z" fill="#FF5B59"/>
<path d="M36.6081 47.4008C34.8366 46.7443 33.1822 45.8072 31.7085 44.6251L26.1261 49.7972L19.8335 44.5527C18.6371 45.5871 17.0096 46.5284 14.8719 47.387C8.81373 49.8247 8 52.4866 8 52.4866H43.5041C43.5041 52.4866 42.6731 49.8385 36.6081 47.4008Z" fill="#6F87ED"/>
<path d="M17.1375 29.6645C18.2512 31.7988 17.7857 34.2469 16.1031 35.133C14.4205 36.0192 12.131 35.0055 11.0138 32.8712C9.89667 30.7368 10.3656 28.2853 12.0482 27.3992C13.7308 26.513 16.0203 27.5199 17.1375 29.6645Z" fill="#FF8482"/>
<path d="M16.1545 33.7333C16.1545 33.6471 16.1338 33.5712 16.1234 33.4885C16.1349 33.5384 16.143 33.5891 16.1476 33.6402C16.1491 33.276 16.0873 32.9143 15.9648 32.5713C15.7373 31.5553 15.2085 30.6317 14.4475 29.9211C13.6865 29.2106 12.7288 28.7463 11.6996 28.5889C13.0551 29.3757 14.2298 30.4389 15.1476 31.7093C13.934 31.2162 12.0444 32.2644 12.0444 32.2644C14.2719 31.6714 15.2856 32.161 15.751 32.7299C15.9237 33.0477 16.059 33.3844 16.1545 33.7333Z" fill="#FF5B59"/>
<path d="M34.2668 29.6645C33.1496 31.7988 33.6185 34.2469 35.3012 35.133C36.9838 36.0192 39.2733 35.0055 40.3904 32.8712C41.5076 30.7368 41.0386 28.2853 39.356 27.3992C37.6734 26.513 35.3839 27.5199 34.2668 29.6645Z" fill="#FF8482"/>
<path d="M35.2458 33.7333C35.2458 33.6471 35.27 33.5712 35.2769 33.4885C35.2769 33.5505 35.2562 33.5988 35.2528 33.6402C35.2521 33.2758 35.3151 32.914 35.4389 32.5713C35.6669 31.5544 36.1967 30.63 36.9591 29.9194C37.7214 29.2087 38.6806 28.745 39.711 28.5889C38.3556 29.3757 37.1808 30.4389 36.263 31.7093C37.4802 31.2162 39.3662 32.2644 39.3662 32.2644C37.1354 31.6714 36.1216 32.161 35.6562 32.7299C35.4831 33.0483 35.3455 33.3848 35.2458 33.7333Z" fill="#FF5B59"/>
<path d="M38.9868 20.5929C40.366 17.5827 42.0417 12.2625 35.2388 9.16273C35.2871 9.18687 32.3287 6.69397 27.0705 11.2315C25.3948 12.7038 23.1467 13.3486 21.0158 12.6452C18.8849 11.9418 16.0921 12.0142 14.5405 15.8725C14.1602 16.7472 13.9935 17.6998 14.0543 18.6516C13.5612 18.0344 12.8889 17.6172 12.2613 18.6171C11.7545 19.3998 12.1717 22.8651 13.3992 25.9993C13.3992 25.9993 14.1129 33.5297 17.5368 34.7021L20.9158 30.068C23.719 30.0025 27.2084 29.9093 30.0806 29.8473L33.6217 34.7021C36.0732 33.8642 37.1387 29.7887 37.549 27.5233L37.9489 27.0785C39.5281 25.3339 40.1281 22.9134 39.1592 20.9135C39.1006 20.7997 39.0454 20.6997 38.9868 20.5929Z" fill="#420E2F"/>
<path d="M21.0158 12.6369C18.8918 11.9301 16.0921 12.0129 14.5232 15.8677C14.3673 16.2462 14.2438 16.6372 14.1543 17.0366L14.2439 17.2504C14.2439 17.2504 16.3196 12.3956 21.0158 12.6369Z" fill="#7C1A59"/>
<path d="M35.2285 9.16202C35.2664 9.16202 33.4804 7.67248 30.2048 9.16202C30.8461 9.16202 39.0282 9.24477 40.0833 17.2648C40.5867 14.4926 39.9281 11.2998 35.2285 9.16202Z" fill="#7C1A59"/>
<path d="M22.5812 17.5061C20.6959 17.506 18.8866 18.2497 17.5464 19.5757C16.2061 20.9018 15.4432 22.703 15.4232 24.5883L15.3508 31.4119C15.3508 37.6493 19.9849 42.711 25.6948 42.711C31.4047 42.711 36.0388 37.6493 36.0388 31.4119L36.0181 24.1711C36.0181 20.4886 33.6424 15.4062 29.9565 15.4062L22.5812 17.5061Z" fill="#FDB193"/>
<path opacity="0.39" d="M26.5184 37.8591C26.5184 37.8591 28.3734 37.9142 29.0354 36.4385C29.0354 36.4385 29.563 37.5143 28.2975 38.1625C27.0321 38.8107 26.5184 37.8591 26.5184 37.8591Z" fill="#FF8282"/>
<g style="mix-blend-mode:multiply" opacity="0.55">
<path d="M36.0287 24.1711C36.0287 20.4886 33.653 15.4062 29.9671 15.4062L22.5815 17.5061C20.6961 17.506 18.8868 18.2497 17.5466 19.5757C16.2063 20.9018 15.4434 22.703 15.4234 24.5883L15.3889 27.8191L16.4233 26.0433C16.4233 26.0123 17.1405 22.9712 23.6951 22.8884C25.9846 22.8574 28.7706 22.1988 30.5912 19.5611C31.2428 21.5196 32.3324 23.2815 33.6288 24.34C34.3172 24.9224 35.1519 25.3052 36.0424 25.4468L36.0287 24.1711Z" fill="#FDB193"/>
</g>
<path d="M28.8496 33.3794C28.9735 33.7173 29.0366 34.0745 29.0358 34.4345C29.0524 35.17 28.7917 35.8848 28.3056 36.437C27.8195 36.9892 27.1435 37.3384 26.4119 37.4153C25.6802 37.4922 24.9464 37.291 24.3562 36.8519C23.766 36.4127 23.3625 35.7677 23.2259 35.0448L28.8496 33.3794Z" fill="#230F0B"/>
<path d="M26.102 37.4447C25.6206 37.4477 25.1462 37.3291 24.7228 37.0999C24.8812 36.4344 25.2631 35.8434 25.8046 35.4255C26.3461 35.0076 27.0146 34.7881 27.6985 34.8035C28.1389 34.804 28.5744 34.8955 28.9777 35.0724C28.8438 35.738 28.4848 36.3372 27.9611 36.7692C27.4374 37.2013 26.7809 37.4398 26.102 37.4447Z" fill="#E8132C"/>
<path d="M27.1772 31.5812C27.1772 32.5605 26.5152 33.3535 25.7015 33.3535C24.8878 33.3535 24.2223 32.5605 24.2223 31.5812C24.2223 30.602 24.8843 29.3745 25.7015 29.3745C26.5187 29.3745 27.1772 30.602 27.1772 31.5812Z" fill="#FF6A68"/>
<path d="M31.0244 28.4337C31.0244 29.244 30.752 29.9026 30.4107 29.9026C30.0693 29.9026 29.7969 29.244 29.7969 28.4337C29.7969 27.6234 30.0728 26.9614 30.4107 26.9614C30.7486 26.9614 31.0244 27.62 31.0244 28.4337Z" fill="#25110D"/>
<path d="M33.3039 26.8232C33.3832 26.7784 29.98 24.6268 27.8802 24.7061C27.856 24.7406 27.9216 22.827 30.7075 23.8303C33.4108 24.9406 33.2797 26.8542 33.3039 26.8232Z" fill="#420E2F"/>
<path d="M20.9873 29.9016C21.3263 29.9016 21.6011 29.2439 21.6011 28.4327C21.6011 27.6215 21.3263 26.9639 20.9873 26.9639C20.6484 26.9639 20.3736 27.6215 20.3736 28.4327C20.3736 29.2439 20.6484 29.9016 20.9873 29.9016Z" fill="#25110D"/>
<path d="M17.7844 26.8232C17.7051 26.7784 21.1083 24.6268 23.2082 24.7061C23.2357 24.7406 23.1668 22.827 20.3808 23.8303C17.681 24.9406 17.8086 26.8542 17.7844 26.8232Z" fill="#420E2F"/>
<path d="M19.5151 33.4229C19.4747 33.4232 19.4348 33.4149 19.3979 33.3987C19.3329 33.3668 19.2831 33.3105 19.2592 33.2421C19.2353 33.1737 19.2393 33.0987 19.2703 33.0332L20.1288 31.2575C20.1621 31.1955 20.218 31.1487 20.285 31.127C20.3519 31.1053 20.4247 31.1104 20.488 31.1412C20.5513 31.1719 20.6002 31.226 20.6245 31.292C20.6489 31.3581 20.6467 31.431 20.6184 31.4954L19.7599 33.2712C19.7377 33.317 19.7028 33.3557 19.6595 33.3825C19.6162 33.4094 19.5661 33.4234 19.5151 33.4229Z" fill="#FF6A68"/>
<path d="M17.8017 33.4229C17.7554 33.4236 17.7097 33.4125 17.6691 33.3904C17.6284 33.3684 17.5941 33.3362 17.5695 33.297C17.5449 33.2579 17.5308 33.213 17.5286 33.1668C17.5264 33.1206 17.5361 33.0746 17.5569 33.0332L18.4154 31.2575C18.4487 31.1955 18.5046 31.1487 18.5716 31.127C18.6385 31.1053 18.7113 31.1104 18.7746 31.1412C18.8379 31.1719 18.8868 31.226 18.9111 31.292C18.9355 31.3581 18.9333 31.431 18.905 31.4954L18.0465 33.2712C18.0239 33.3168 17.989 33.3552 17.9458 33.382C17.9025 33.4088 17.8526 33.423 17.8017 33.4229Z" fill="#FF6A68"/>
<path d="M31.7213 33.4243C31.6704 33.4244 31.6205 33.4103 31.5772 33.3835C31.534 33.3567 31.4991 33.3183 31.4765 33.2726L30.618 31.4969C30.5897 31.4324 30.5876 31.3595 30.6119 31.2935C30.6362 31.2275 30.6851 31.1734 30.7484 31.1426C30.8117 31.1119 30.8845 31.1068 30.9514 31.1285C31.0184 31.1502 31.0743 31.1969 31.1076 31.259L31.9661 33.0347C31.9971 33.1002 32.0011 33.1752 31.9772 33.2436C31.9534 33.312 31.9036 33.3682 31.8386 33.4002C31.8016 33.4164 31.7617 33.4246 31.7213 33.4243Z" fill="#FF6A68"/>
<path d="M33.4349 33.4242C33.384 33.4243 33.3341 33.4102 33.2908 33.3834C33.2475 33.3566 33.2127 33.3182 33.1901 33.2725L32.335 31.4968C32.3192 31.4649 32.3098 31.4302 32.3075 31.3947C32.3051 31.3591 32.3099 31.3235 32.3214 31.2898C32.333 31.2562 32.3511 31.2251 32.3747 31.1985C32.3984 31.1719 32.4271 31.1502 32.4591 31.1348C32.4913 31.1188 32.5262 31.1094 32.562 31.107C32.5978 31.1047 32.6337 31.1094 32.6677 31.1209C32.7016 31.1324 32.733 31.1506 32.7599 31.1743C32.7868 31.1979 32.8088 31.2267 32.8246 31.2589L33.6797 33.0346C33.711 33.0997 33.7154 33.1743 33.6922 33.2427C33.669 33.311 33.62 33.3675 33.5556 33.4001C33.5176 33.4167 33.4764 33.4249 33.4349 33.4242Z" fill="#FF6A68"/>
<path d="M36.4906 21.2266L31.6324 12.9204L19.8919 16.4753L13.5924 24.1057C14.2963 24.5825 14.9112 25.1788 15.4095 25.8676C15.4095 25.8676 16.0991 21.9507 23.6847 21.8542C28.6705 21.7887 30.3221 18.6648 30.9738 16.1374C31.1117 19.0854 32.5461 22.1266 34.277 23.5368C34.747 23.9633 35.3227 24.2561 35.9443 24.3847C36.5658 24.5132 37.2105 24.4729 37.8112 24.2678L36.4906 21.2266Z" fill="#420E2F"/>
</g>
<defs>
<clipPath id="clip0_50_4">
<rect width="52" height="52" rx="26" fill="white"/>
</clipPath>
</defs>
</svg>
