<svg width="52" height="52" viewBox="0 0 52 52" fill="none" xmlns="http://www.w3.org/2000/svg">
<g clip-path="url(#clip0_50_292)">
<rect width="52" height="52" rx="26" fill="#FFDBD1" fill-opacity="0.4"/>
<path d="M8.23434 29.3152C8.55536 27.331 8.90029 25.2853 9.97947 23.588C10.946 22.0683 12.5306 20.7022 12.4384 18.9025C12.3906 18.0145 11.9227 17.1949 11.8578 16.3035C11.7553 14.8897 12.797 13.5236 14.1425 13.0762C14.6509 12.8975 15.1915 12.8288 15.7284 12.8748C16.2654 12.9207 16.7865 13.0802 17.2571 13.3426V13.2982C18.6744 9.01223 25.9042 7.40028 29.7394 8.19943C31.8177 8.65668 33.741 9.64727 35.3201 11.0737C36.8992 12.5001 38.0796 14.3131 38.7452 16.3343C38.9791 17.2601 39.2641 18.1722 39.5989 19.0664C41.2485 22.823 44.9129 22.4815 46.0877 28.5775C47.0747 33.7344 44.1957 39.3591 41.3065 41.2784C33.7556 46.2782 20.1156 44.9804 15.3173 43.3514C6.81706 40.4725 7.89282 31.4326 8.23434 29.3152Z" fill="#5C1B1B"/>
<path d="M10.7615 31.453C10.7615 31.453 10.2697 37.6549 13.8146 42.7229C14.2988 42.9613 14.7986 43.1667 15.3104 43.3376C19.6921 44.8266 31.447 46.0322 39.2164 42.4258C40.924 39.6391 41.6924 35.978 41.0162 31.4393L10.7615 31.453Z" fill="#5C1B1B"/>
<path d="M29.0154 10.0027C35.2685 10.9999 39.0491 17.2906 39.0491 17.2906C38.9637 16.9696 38.8749 16.6486 38.7759 16.3344C38.1073 14.313 36.9237 12.5006 35.3415 11.076C33.7593 9.65129 31.8333 8.66344 29.7531 8.20977C25.9179 7.41063 18.688 9.02257 17.2708 13.3086V13.353C17.2708 13.353 22.7486 9.00208 29.0154 10.0027Z" fill="#5C1B1B"/>
<path d="M14.1425 13.0764C13.5639 13.2738 13.0489 13.6228 12.6512 14.0872C12.2535 14.5516 11.9878 15.1142 11.8817 15.7163C13.4109 14.4684 15.241 13.6441 17.1888 13.3257C16.7264 13.0744 16.2166 12.9224 15.692 12.8794C15.1674 12.8365 14.6397 12.9036 14.1425 13.0764Z" fill="#5C1B1B"/>
<path d="M15.2386 46.9506C21.2424 44.5361 23.2164 41.5376 22.7041 37.2175H29.3021C28.7899 41.5376 30.7672 44.5361 36.7676 46.9506C42.768 49.3651 43.574 52.0016 43.574 52.0016H8.43567C8.43567 52.0016 9.23822 49.3651 15.2386 46.9506Z" fill="#083C5D"/>
<path d="M29.3021 37.2175H22.7041C23.0763 40.3594 22.1303 42.8012 19.2889 44.8298C20.1728 45.7751 21.2367 46.5341 22.4182 47.0621C23.5997 47.5902 24.8748 47.8767 26.1686 47.9047C27.4624 47.9327 28.7488 47.7017 29.952 47.2252C31.1552 46.7488 32.251 46.0365 33.1749 45.1303C29.9749 43.0437 28.9128 40.5165 29.3021 37.2175Z" fill="#FFA3A3"/>
<path d="M26.8159 37.2174H22.7177C22.9602 39.2665 22.6426 41.0013 21.6112 42.5279C22.9528 43.2582 24.4623 43.6244 25.9894 43.59C27.5455 43.5221 29.0836 43.2288 30.5554 42.7192C29.4216 41.1448 29.0664 39.3416 29.3158 37.2174H26.8159Z" fill="#FF8282"/>
<path d="M17.4204 29.4239C18.5235 31.5345 18.0624 33.9558 16.3959 34.8301C14.7293 35.7044 12.4719 34.7037 11.3688 32.5932C10.2657 30.4826 10.7267 28.0647 12.3933 27.1904C14.0599 26.3162 16.3173 27.3339 17.4204 29.4239Z" fill="#FF8282"/>
<path d="M16.4539 33.4536C16.4539 33.3683 16.43 33.2931 16.4197 33.2112C16.4197 33.2726 16.4402 33.3205 16.447 33.3614C16.4476 33.0005 16.3852 32.6422 16.2626 32.3027C16.0382 31.2984 15.5164 30.3849 14.7653 29.6813C14.0142 28.9777 13.0686 28.5167 12.0518 28.3583C13.3938 29.131 14.5576 30.1784 15.4669 31.4319C14.2682 30.9435 12.4103 31.9817 12.4103 31.9817C14.6131 31.3977 15.6137 31.8793 16.0748 32.4394C16.2382 32.7624 16.3654 33.1026 16.4539 33.4536Z" fill="#FF4F4F"/>
<path d="M34.3461 29.4239C33.243 31.5345 33.704 33.9558 35.3706 34.8301C37.0372 35.7044 39.2946 34.7037 40.3977 32.5932C41.5008 30.4826 41.0397 28.0647 39.3731 27.1904C37.7066 26.3162 35.4492 27.3339 34.3461 29.4239Z" fill="#FF8282"/>
<path d="M35.316 33.4536C35.316 33.3683 35.3365 33.2931 35.3468 33.2112C35.3354 33.2606 35.3274 33.3109 35.3229 33.3614C35.3213 33.0007 35.3825 32.6425 35.5039 32.3027C35.7283 31.2984 36.2501 30.3849 37.0012 29.6813C37.7522 28.9777 38.6978 28.5167 39.7147 28.3583C38.3741 29.133 37.2108 30.18 36.2996 31.4319C37.5017 30.9435 39.3561 31.9817 39.3561 31.9817C37.1534 31.3977 36.1527 31.8793 35.6917 32.4394C35.5281 32.762 35.4021 33.1023 35.316 33.4536Z" fill="#FF4F4F"/>
<path d="M25.9762 41.8459C33.3392 41.4327 36.365 37.1945 36.365 31.4537V25.0162C36.3655 24.0019 36.1661 22.9974 35.7782 22.0602C35.3904 21.1229 34.8217 20.2713 34.1046 19.5539C33.3876 18.8366 32.5362 18.2675 31.5991 17.8792C30.6621 17.491 29.6577 17.2911 28.6434 17.2911H23.3056C19.0401 17.2911 18.0223 19.6988 17.2539 25.7538C17.0661 27.2258 15.5464 29.0802 15.5839 31.4537C15.6352 37.1945 21.5024 42.0987 25.9762 41.8459Z" fill="#FDBFA8"/>
<path opacity="0.47" d="M25.7439 35.6646C25.7439 35.6646 28.1345 35.8797 29.2444 34.4522C29.2444 34.4522 29.323 35.8182 28.1106 36.1973C26.8982 36.5764 25.7439 35.6646 25.7439 35.6646Z" fill="#FF8282"/>
<path d="M31.1229 28.5776C31.1229 29.3802 30.8394 30.0325 30.4876 30.0325C30.1359 30.0325 29.8524 29.3802 29.8524 28.5776C29.8524 27.7751 30.1359 27.1228 30.4876 27.1228C30.8394 27.1228 31.1229 27.7717 31.1229 28.5776Z" fill="black"/>
<path d="M20.8978 28.5776C20.8978 29.3802 21.1813 30.0325 21.533 30.0325C21.8848 30.0325 22.1853 29.3836 22.1853 28.5776C22.1853 27.7717 21.9019 27.1194 21.5501 27.1228C21.1984 27.1262 20.8978 27.7717 20.8978 28.5776Z" fill="black"/>
<path d="M18.3774 26.8498C18.3774 26.8498 21.6423 25.0944 23.3943 24.8792C23.3066 24.6211 23.1662 24.3841 22.9819 24.1832C22.7977 23.9823 22.5736 23.822 22.324 23.7125C22.0744 23.6029 21.8047 23.5466 21.5321 23.5469C21.2595 23.5473 20.99 23.6044 20.7407 23.7147C20.0745 23.9345 19.4912 24.3525 19.0689 24.9127C18.6466 25.473 18.4054 26.1488 18.3774 26.8498V26.8498Z" fill="#A31727"/>
<path d="M33.5714 26.8498C33.5714 26.8498 30.3065 25.0945 28.5546 24.8793C28.6427 24.6215 28.7833 24.3848 28.9677 24.1842C29.152 23.9836 29.376 23.8235 29.6255 23.7141C29.875 23.6046 30.1445 23.5481 30.4169 23.5482C30.6893 23.5483 30.9588 23.605 31.2081 23.7147C31.8744 23.9346 32.4576 24.3526 32.8799 24.9128C33.3022 25.473 33.5435 26.1488 33.5714 26.8498V26.8498Z" fill="#A31727"/>
<path d="M27.5711 31.5899C27.5836 31.7544 27.5619 31.9198 27.5075 32.0756C27.4531 32.2314 27.3671 32.3743 27.2548 32.4953C27.1426 32.6163 27.0066 32.7129 26.8554 32.7789C26.7041 32.8449 26.5409 32.879 26.3758 32.879C26.2108 32.879 26.0475 32.8449 25.8963 32.7789C25.745 32.7129 25.609 32.6163 25.4968 32.4953C25.3846 32.3743 25.2986 32.2314 25.2442 32.0756C25.1898 31.9198 25.1681 31.7544 25.1805 31.5899C25.1805 30.9068 25.7167 29.1105 26.3792 29.1105C27.0418 29.1105 27.5711 30.9137 27.5711 31.5899Z" fill="#FF8282"/>
<path d="M20.8974 33.5197C20.8552 33.5203 20.8133 33.5122 20.7744 33.4958C20.7416 33.4811 20.7121 33.46 20.6877 33.4336C20.6633 33.4073 20.6445 33.3763 20.6323 33.3424C20.6202 33.3086 20.615 33.2727 20.6172 33.2368C20.6193 33.201 20.6286 33.1659 20.6447 33.1338L21.5326 31.3749C21.5675 31.3102 21.626 31.2613 21.6959 31.2385C21.7658 31.2156 21.8418 31.2204 21.9083 31.252C21.9699 31.281 22.0179 31.3328 22.0421 31.3966C22.0663 31.4603 22.0649 31.5309 22.038 31.5935L21.1501 33.3523C21.1281 33.4013 21.0927 33.443 21.048 33.4726C21.0032 33.5022 20.951 33.5185 20.8974 33.5197Z" fill="#FF8282"/>
<path d="M19.1113 33.5197C19.0691 33.5203 19.0272 33.5122 18.9883 33.4958C18.9555 33.481 18.926 33.4599 18.9015 33.4337C18.877 33.4074 18.858 33.3765 18.8456 33.3428C18.8332 33.309 18.8276 33.2732 18.8293 33.2373C18.8309 33.2014 18.8397 33.1662 18.8551 33.1338L19.7465 31.3749C19.7814 31.3102 19.8398 31.2613 19.9098 31.2385C19.9797 31.2156 20.0557 31.2204 20.1221 31.252C20.1838 31.281 20.2318 31.3328 20.256 31.3966C20.2802 31.4603 20.2788 31.5309 20.2519 31.5935L19.364 33.3523C19.342 33.4013 19.3066 33.443 19.2619 33.4726C19.2171 33.5022 19.1649 33.5185 19.1113 33.5197Z" fill="#FF8282"/>
<path d="M31.6585 33.5194C31.6062 33.5201 31.5546 33.5065 31.5095 33.48C31.4643 33.4535 31.4273 33.4152 31.4024 33.3692L30.5144 31.6104C30.4887 31.5472 30.4882 31.4766 30.513 31.413C30.5377 31.3495 30.5859 31.2979 30.6476 31.2688C30.7141 31.2373 30.7901 31.2324 30.86 31.2553C30.9299 31.2782 30.9884 31.327 31.0233 31.3918L31.9112 33.1506C31.9277 33.1829 31.9372 33.2182 31.9394 33.2543C31.9415 33.2905 31.9362 33.3267 31.9237 33.3607C31.9112 33.3946 31.8918 33.4257 31.8667 33.4518C31.8417 33.478 31.8115 33.4987 31.778 33.5126C31.7391 33.5232 31.6984 33.5256 31.6585 33.5194Z" fill="#FF8282"/>
<path d="M33.0553 33.3659C33.0032 33.3656 32.9521 33.3512 32.9076 33.3241C32.8631 33.297 32.8268 33.2583 32.8026 33.2122L31.9146 31.4534C31.8987 31.4215 31.8894 31.3867 31.8873 31.3511C31.8852 31.3154 31.8904 31.2798 31.9025 31.2462C31.9147 31.2127 31.9335 31.182 31.9579 31.1559C31.9823 31.1299 32.0117 31.1091 32.0444 31.0948C32.1111 31.0626 32.1878 31.0578 32.258 31.0814C32.3282 31.105 32.3864 31.1552 32.4201 31.2212L33.308 32.9765C33.324 33.0087 33.3334 33.0438 33.3355 33.0796C33.3376 33.1155 33.3325 33.1514 33.3203 33.1852C33.3082 33.219 33.2894 33.2501 33.265 33.2764C33.2405 33.3028 33.211 33.3239 33.1782 33.3385C33.1395 33.3557 33.0977 33.365 33.0553 33.3659Z" fill="#FF8282"/>
<path d="M25.9214 34.9163C25.3 34.9169 24.6816 34.8307 24.0841 34.6602C23.9976 34.6334 23.9253 34.5734 23.883 34.4934C23.8408 34.4133 23.832 34.3198 23.8587 34.2333C23.8719 34.1901 23.8936 34.1499 23.9224 34.1152C23.9513 34.0804 23.9867 34.0517 24.0268 34.0307C24.0668 34.0098 24.1106 33.997 24.1556 33.993C24.2006 33.9891 24.2459 33.9942 24.289 34.0079C24.3163 34.0079 27.3626 34.9402 28.9745 32.898C29.0303 32.8264 29.1121 32.7799 29.2021 32.7687C29.2921 32.7575 29.3828 32.7825 29.4544 32.8382C29.5259 32.8939 29.5724 32.9757 29.5836 33.0657C29.5948 33.1557 29.5698 33.2465 29.5141 33.318C29.0809 33.8455 28.5305 34.2646 27.9068 34.5421C27.2831 34.8195 26.6033 34.9477 25.9214 34.9163V34.9163Z" fill="#E8132C"/>
<path d="M34.0115 15.825L26.5221 13.9331L16.1435 17.2901L15.6722 30.4077C17.3149 28.4166 19.1454 22.1806 20.047 18.8133C22.6255 23.4476 30.8594 23.796 34.7697 23.6867C34.8107 29.3422 36.3133 31.4527 36.3133 31.4527L36.87 23.5774L34.0115 15.825Z" fill="#5C1B1B"/>
</g>
<defs>
<clipPath id="clip0_50_292">
<rect width="52" height="52" rx="26" fill="white"/>
</clipPath>
</defs>
</svg>
