<svg width="52" height="52" viewBox="0 0 52 52" fill="none" xmlns="http://www.w3.org/2000/svg">
<rect width="52" height="52" rx="26" fill="#FFDBD1" fill-opacity="0.4"/>
<path d="M43.864 27.2788C43.864 27.2788 42.0606 33.2654 32.8525 29.0468V21.9746C32.8525 21.9746 38.3406 24.8884 42.4001 24.1635C44.6243 23.7462 43.864 27.2788 43.864 27.2788Z" fill="#078C81"/>
<path d="M37.3081 46.6003C30.8901 44.019 28.779 40.8117 29.3271 36.1935H22.2548C22.8029 40.8117 20.6919 44.019 14.2738 46.6003C7.85575 49.1817 7 52 7 52H44.5819C44.5819 52 43.7227 49.1676 37.3081 46.6003Z" fill="black"/>
<path d="M17.6755 44.9279L17.8665 45.0799C20.2781 47.0071 23.0186 48.0255 25.798 48.0255C28.7009 47.9795 31.5003 46.9399 33.7295 45.0799L33.9205 44.9279C33.7012 44.797 33.4891 44.6627 33.2875 44.5283C31.0633 46.2964 28.5138 47.3183 25.798 47.3183C23.0823 47.3183 20.5327 46.3034 18.3085 44.5283C18.1069 44.6627 17.8948 44.797 17.6755 44.9279Z" fill="white"/>
<path d="M18.3049 44.528C20.5292 46.2961 23.0787 47.318 25.7944 47.318C28.5102 47.318 31.0597 46.3031 33.284 44.528C29.9989 42.3179 28.9098 39.6482 29.3235 36.1792H22.2512C22.6827 39.6482 21.5935 42.3179 18.3049 44.528Z" fill="#FD9A8B"/>
<path d="M29.327 36.1792H22.2548C22.5306 38.4989 22.131 40.4615 20.8403 42.1694C22.3484 43.0154 24.0475 43.4621 25.7766 43.467C27.5057 43.472 29.2074 43.035 30.7203 42.1977C29.4543 40.4827 29.0477 38.5131 29.327 36.1792Z" fill="#FD7058"/>
<path d="M16.9682 28.4777C18.1139 30.6701 17.633 33.1807 15.9074 34.0895C14.1818 34.9983 11.8338 33.9587 10.6916 31.7698C9.54944 29.5809 10.0233 27.0668 11.7524 26.158C13.4816 25.2492 15.8296 26.2888 16.9682 28.4777Z" fill="#FD8977"/>
<path d="M15.9603 32.6611C15.9603 32.5727 15.9391 32.4949 15.9285 32.41C15.9406 32.4612 15.9488 32.5132 15.9532 32.5656C15.9548 32.1921 15.8914 31.8211 15.7658 31.4694C15.5327 30.4279 14.9909 29.481 14.2111 28.7524C13.4314 28.0237 12.45 27.5472 11.3951 27.3852C12.7831 28.1875 13.9877 29.2716 14.9313 30.5677C13.6866 30.0585 11.7488 31.1335 11.7488 31.1335C14.0331 30.5288 15.0763 31.0309 15.5536 31.6144C15.7289 31.9465 15.8653 32.2977 15.9603 32.6611Z" fill="#FD5F47"/>
<path d="M34.5358 28.4777C33.3901 30.6701 33.871 33.1807 35.5966 34.0895C37.3222 34.9983 39.6702 33.9587 40.8159 31.7698C41.9616 29.581 41.4807 27.0668 39.7551 26.158C38.0294 25.2492 35.6815 26.2888 34.5358 28.4777Z" fill="#FD8977"/>
<path d="M35.54 32.6611C35.54 32.5727 35.5648 32.4949 35.5719 32.41C35.5719 32.4701 35.5507 32.5232 35.5471 32.5656C35.5465 32.1919 35.6111 31.8209 35.7381 31.4694C35.9711 30.4279 36.513 29.481 37.2927 28.7524C38.0725 28.0237 39.0539 27.5472 40.1087 27.3852C38.7204 28.187 37.5157 29.2712 36.5726 30.5677C37.8208 30.0585 39.7551 31.1335 39.7551 31.1335C37.4672 30.5288 36.4276 31.0309 35.9502 31.6144C35.7752 31.947 35.6376 32.2981 35.54 32.6611Z" fill="#FD5F47"/>
<path d="M37.9553 23.414C37.9553 23.414 39.0409 32.5655 34.4192 33.7465L30.5294 27.7952L32.5167 16.5751L37.9553 23.414Z" fill="#1E1C36"/>
<path d="M13.4959 22.523C13.4959 22.523 12.8983 30.2034 16.3814 32.6681L18.8107 16.0695L13.4959 22.523Z" fill="#1E1C36"/>
<path d="M22.5481 16.0201C20.6145 16.02 18.759 16.7827 17.3845 18.1427C16.01 19.5026 15.2276 21.3499 15.2071 23.2833L15.1364 30.2813C15.1364 36.6782 19.8854 41.8656 25.7447 41.8656C31.6041 41.8656 36.3531 36.6782 36.3531 30.2813L36.3319 22.8554C36.3272 21.041 35.6031 19.3024 34.3184 18.0211C33.0338 16.7397 31.2933 16.0201 29.4789 16.0201H22.5481Z" fill="#EBB084"/>
<path opacity="0.49" d="M36.339 24.8463V22.8554C36.3344 21.041 35.6103 19.3024 34.3256 18.0211C33.0409 16.7397 31.3005 16.0201 29.486 16.0201H22.5482C20.6146 16.02 18.7591 16.7827 17.3846 18.1427C16.0101 19.5026 15.2276 21.3499 15.2072 23.2833V23.4531C19.3232 22.5231 26.6147 21.8477 36.339 24.8463Z" fill="#FD7058"/>
<path d="M31.2149 27.2228C31.2149 28.0573 30.932 28.7327 30.5819 28.7327C30.2319 28.7327 29.9525 28.0573 29.9525 27.2228C29.9525 26.3883 30.2354 25.7164 30.5819 25.7164C30.9285 25.7164 31.2149 26.3918 31.2149 27.2228Z" fill="#25110D"/>
<path d="M33.5488 25.575C33.6301 25.5255 30.1399 23.3225 27.9864 23.4003C27.9617 23.4357 28.0289 21.4767 30.8861 22.5021C33.6584 23.6443 33.5099 25.6069 33.5488 25.575Z" fill="#1E1C36"/>
<path d="M20.9212 28.7292C21.2688 28.7292 21.5506 28.0548 21.5506 27.2228C21.5506 26.3908 21.2688 25.7164 20.9212 25.7164C20.5736 25.7164 20.2917 26.3908 20.2917 27.2228C20.2917 28.0548 20.5736 28.7292 20.9212 28.7292Z" fill="#25110D"/>
<path d="M17.6326 25.575C17.5513 25.5255 21.0414 23.3225 23.1949 23.4003C23.2232 23.4357 23.1525 21.4767 20.2953 22.5021C17.5265 23.6443 17.6574 25.6069 17.6326 25.575Z" fill="#1E1C36"/>
<path d="M19.4079 32.3427C19.3661 32.3435 19.3248 32.3337 19.2877 32.3144C19.2213 32.2824 19.1703 32.2253 19.1458 32.1558C19.1213 32.0862 19.1252 32.0098 19.1569 31.9431L20.0373 30.122C20.0524 30.0876 20.0743 30.0565 20.1017 30.0308C20.1291 30.005 20.1614 29.985 20.1967 29.972C20.232 29.959 20.2696 29.9532 20.3071 29.9551C20.3447 29.957 20.3815 29.9664 20.4153 29.9828C20.4492 29.9993 20.4793 30.0224 20.504 30.0508C20.5287 30.0792 20.5474 30.1122 20.559 30.148C20.5706 30.1838 20.5748 30.2216 20.5715 30.259C20.5681 30.2965 20.5572 30.3329 20.5395 30.366L19.659 32.1871C19.6365 32.2345 19.6009 32.2743 19.5564 32.3019C19.5119 32.3295 19.4603 32.3437 19.4079 32.3427Z" fill="#FD5F44"/>
<path d="M17.6503 32.3427C17.6085 32.3439 17.567 32.3342 17.5301 32.3144C17.4969 32.2989 17.4671 32.2769 17.4425 32.2498C17.4179 32.2226 17.399 32.1908 17.3868 32.1563C17.3746 32.1217 17.3694 32.085 17.3716 32.0485C17.3737 32.0119 17.3831 31.9761 17.3993 31.9431L18.2798 30.122C18.2948 30.0876 18.3167 30.0565 18.3441 30.0308C18.3715 30.005 18.4038 29.985 18.4391 29.972C18.4744 29.959 18.512 29.9532 18.5495 29.9551C18.5871 29.957 18.6239 29.9664 18.6578 29.9828C18.6916 29.9993 18.7217 30.0224 18.7464 30.0508C18.7711 30.0792 18.7898 30.1122 18.8014 30.148C18.813 30.1838 18.8172 30.2216 18.8139 30.259C18.8105 30.2965 18.7997 30.3329 18.7819 30.366L17.9014 32.1871C17.8783 32.2339 17.8425 32.2733 17.7981 32.3008C17.7537 32.3283 17.7025 32.3428 17.6503 32.3427Z" fill="#FD5F44"/>
<path d="M31.926 32.3427C31.8738 32.3428 31.8226 32.3283 31.7783 32.3008C31.7339 32.2733 31.6981 32.2339 31.675 32.1871L30.7945 30.366C30.7767 30.3329 30.7658 30.2965 30.7625 30.259C30.7591 30.2216 30.7634 30.1838 30.775 30.148C30.7866 30.1122 30.8052 30.0792 30.8299 30.0508C30.8546 30.0224 30.8848 29.9993 30.9186 29.9828C30.9524 29.9664 30.9892 29.957 31.0268 29.9551C31.0644 29.9532 31.102 29.959 31.1372 29.972C31.1725 29.985 31.2049 30.005 31.2322 30.0308C31.2596 30.0565 31.2815 30.0876 31.2966 30.122L32.1771 31.9431C32.1932 31.9761 32.2027 32.0119 32.2048 32.0485C32.2069 32.085 32.2018 32.1217 32.1896 32.1563C32.1774 32.1908 32.1584 32.2226 32.1338 32.2498C32.1092 32.2769 32.0795 32.2989 32.0463 32.3144C32.0092 32.3337 31.9678 32.3435 31.926 32.3427Z" fill="#FD5F44"/>
<path d="M33.6836 32.3427C33.6314 32.3428 33.5802 32.3283 33.5358 32.3008C33.4914 32.2733 33.4557 32.2339 33.4325 32.1871L32.5556 30.366C32.5235 30.2993 32.5189 30.2227 32.5427 30.1526C32.5665 30.0825 32.6168 30.0246 32.6829 29.9912C32.7501 29.9603 32.8268 29.9567 32.8966 29.9811C32.9665 30.0055 33.0242 30.056 33.0577 30.122L33.9347 31.9431C33.9509 31.9758 33.9605 32.0114 33.9629 32.0478C33.9653 32.0843 33.9604 32.1208 33.9486 32.1554C33.9367 32.1899 33.9182 32.2217 33.8939 32.2491C33.8697 32.2764 33.8403 32.2986 33.8074 32.3144C33.7692 32.3341 33.7266 32.3439 33.6836 32.3427Z" fill="#FD5F44"/>
<path d="M23.2552 34.3692C23.1208 34.2807 22.997 34.1923 22.9015 34.1075C22.8632 34.0875 22.8296 34.0595 22.8032 34.0252C22.7768 33.991 22.7582 33.9514 22.7487 33.9092C22.7392 33.867 22.739 33.8233 22.7482 33.781C22.7573 33.7388 22.7756 33.699 22.8017 33.6645C22.8278 33.6301 22.8612 33.6017 22.8994 33.5815C22.9376 33.5612 22.9797 33.5495 23.0229 33.5473C23.0661 33.545 23.1092 33.5522 23.1494 33.5683C23.1895 33.5845 23.2256 33.6092 23.2552 33.6407C23.3577 33.722 25.7517 35.5962 27.4561 33.8918C27.5124 33.8356 27.5887 33.8041 27.6682 33.8041C27.7478 33.8041 27.8241 33.8356 27.8804 33.8918C27.9081 33.9194 27.9301 33.9522 27.9451 33.9883C27.96 34.0244 27.9678 34.0631 27.9678 34.1022C27.9678 34.1413 27.96 34.18 27.9451 34.2161C27.9301 34.2522 27.9081 34.285 27.8804 34.3126C26.3988 35.8013 24.3832 35.1047 23.2552 34.3692Z" fill="#FD5F44"/>
<path d="M23.0045 31.7487C23.0045 31.7487 25.791 33.1632 28.5739 31.7487C28.5739 31.7487 29.1432 29.8074 25.791 29.818C22.5484 29.8109 23.0045 31.7487 23.0045 31.7487Z" fill="#FD5F44"/>
<path d="M37.9555 23.414C37.9555 23.414 22.3258 18.6968 13.4961 22.5229C13.4961 22.5229 13.0329 15.3941 15.1793 13.0496C17.2479 10.7865 21.7211 8.57997 26.1413 8.72849C31.5091 8.90883 36.785 11.8474 37.5099 13.1204C40.1231 17.7421 37.9555 23.414 37.9555 23.414Z" fill="#083C5D"/>
<path d="M20.1227 19.7576V21.0943C23.8604 20.8538 27.8173 21.2923 31.0528 21.851L31.2473 20.1112L25.3774 17.003L20.1227 19.7576Z" fill="#078C81"/>
<path d="M24.3556 8.73905C24.3556 9.14924 25.2361 9.48164 26.3217 9.48164C27.4073 9.48164 28.2878 9.14924 28.2878 8.73905C28.2878 8.32886 27.4073 8 26.3217 8C25.2361 8 24.3556 8.33239 24.3556 8.73905Z" fill="#078C81"/>
<path d="M31.2473 20.1114C31.2473 20.1114 25.1899 18.3433 20.1227 19.7577C20.1227 19.7577 20.8299 14.5702 25.2324 13.9373C29.6349 13.3043 31.2473 20.1114 31.2473 20.1114Z" fill="#1E1C36"/>
</svg>
